<?xml version="1.0" encoding="UTF-8"?>
<svg id="_レイヤー_1" data-name="レイヤー_1" xmlns="http://www.w3.org/2000/svg" version="1.1" viewBox="0 0 282 213">
  <!-- Generator: Adobe Illustrator 29.1.0, SVG Export Plug-In . SVG Version: 2.1.0 Build 142)  -->
  <defs>
    <style>
      .st0 {
        fill: #eb77a0;
      }

      .st1 {
        fill: #c2926a;
      }

      .st2 {
        fill: #c8a2ca;
      }

      .st3 {
        fill: #fff;
      }

      .st4 {
        fill: #8dc21f;
      }
    </style>
  </defs>
  <g>
    <path class="st3" d="M256.2,84.6c-1.5-1.5-3.2-2.4-5.1-2.8,0-3.7-4.5-8.3-9-8.3h-24.1c-1.7,0-3.4.7-4.8,1.6l-5.8-1.2-1.1-2.6c-.9-2.1-2.4-3.9-4.4-5.1-1-10.6-11.1-10.6-11.1-10.6h-73.1c0-.9-.4-1.8-.8-2.7-1.2-3-3.7-5.3-6.9-6.6-1.4-.8-3.2-2.4-3.6-2.8-1.5-1.7-2.7-3.8-3.6-5.7-.7-2.5-2.2-4.4-4.2-5.6-2.2-1.3-4.7-1.6-7.3-.9l-.7.2c-1.3.5-5.3,2.4-6.1,7.7-.3.2-.6.4-.9.6-4.4-5-10.4-7.3-16.8-6.3-9.5,1.5-17.5,10.2-18.9,20.7-1.5,10.7,3.9,20.7,14.6,27.6-2.5,3.3-6,7.8-9.1,11.6-1.4-1.6-3.2-2.9-5.2-3.9-5.9-2.9-13-2.2-18,1.9-5,4-7,10.6-5.4,17.5v.5c1.5,4.8,4.5,8.1,6.8,10.7,1.2,1.4,2.4,2.7,2.9,3.7l.2.4c2.2,4,6.2,6.4,10.9,6.4h0c5.3,0,11-3.1,14-7.5,9.1-10.4,14.5-15.7,17.7-18.5,0,.3,0,.7.2,1,1.3,5.6,3.1,13.5,7.8,20.6-7.9,11.1-4.4,18.5-.5,20.3h-22.7l2.1,18.7c1.5,9.5,3.5,14.8,11.3,14,4.1-.8,7.6-3.2,10-6.9h0l1.1,9.9s10-1.5,12.7-5.8c0,0,3.3,3.5,11.2,3.3l7.9-.2c3,0,7.2-1,11.4-4.3l.6,4.7h31.8v-.2h19.8v-.3h4.5c2.6,0,11.7-1,14.3-4.6.6,3.7,5.4,4.9,8.6,4.4,3.5-.7,7.3-1.3,12.5-2.1,12.5-.7,7.2-14.2,7.2-14.2-1-2.7-2.7-4.8-5-6.2-2-11.2-15.8-9.9-15.8-9.9-.3-4.1-2.4-4.5-2.4-4.5v-3.4l7.4-1.9h0l5.8-1.5c1.9,1.5,4.3,2.7,7.3,3.6,2.2.7,4.2,1,6.1,1s5.1-.6,7.2-1.9c2.4-1.4,5.6-4.3,7.2-10.1l1.6-5.3,1.4.4c5.9-16.5,3.3-16.5-2.2-18.9l-5.3-1.5h2.5c1.1.4,2.3.6,3.6.6,2.7,0,5.2-1,7.2-2.8,2.2-2,3.4-4.7,3.4-7.8s-1.1-5.5-3.1-7.6l.2-.6h0ZM149.6,84.2v9.4s2-.5,2,3.7v6.5c-1.1-1.3-2.4-2.4-4-3.2-2.3-1.2-4.7-1.4-6.5-1.4s-4.1.3-7.8,1.2l-4.6,1.1c0-.2,0-.3.2-.5,1.7-5.7.6-11.7-2.7-16.6l23.5-.2s-.1,0-.1,0ZM114.9,144.5s2.1-1.2,2.1-3.7,1.6-5.8,1.6-5.8c.9-2.3,6.2-2.7,6.2-2.7,0,0,0,8.5,6.5,7.9,3.4-.3,24.8-6.2,24.8-6.2,7,5.3,14.8,4.5,19.6,3.5,6-1.3,8.6-8,8.6-8,0,0,0,2.5,1.9,5.5s2.4,9.1,2.4,9.1l-73.8.4s0,0,.1,0ZM186.5,104.7l-15.1-4.7,49.2-1.1-34.1,5.8h0Z"/>
    <g>
      <path class="st1" d="M208.6,146.1"/>
      <path class="st1" d="M73.7,168.7c1-.3,1.7-.8,2.1-1.5.4-.8.8-1.7,1-2.9s.3-2.4.3-3.7.4-1,1-1.1c.7,0,1.4-.2,2,0,0,3.4-.7,6-1.8,7.8s-2.6,2.8-4.4,3.1l-.2-1.6v-.2h0ZM83.3,156.3h-11.4l-.2-1.6h15c0,1.2-.3,2.3-.8,3.3-.5,1-1,1.9-1.8,2.7-.8.7-1.7,1.1-2.9,1.2l-.2-1.6c.6,0,1.1-.5,1.6-1.4.4-.8.7-1.7.7-2.7h0Z"/>
      <path class="st1" d="M99.4,157.1c0,3.6-.3,6.5-1.4,8.9s-2.4,3.7-3.9,4.3l-.2-1.6c.7-.2,1.1-.7,1.6-1.7.3-1,.6-2.2.7-3.8,0-1.6.2-3.2,0-5,0-.3,0-.6.3-.8.3-.2.6-.3,1-.3h1.9ZM106.3,166.5c0-.6.4-1,1-1.1s1-.2,1.6,0c-.3,1.3-.9,2.5-1.6,3.7-.3.7-.9,1.1-1.6,1.3-1.3-1-2.4-2.9-3.2-5.6-.8-2.8-1.2-5.9-1.2-9.6s.2-.6.4-.8.7-.3,1.1-.3h1.8c-.3,3.2-.3,6.1,0,8.6.2,2.5.6,4.6,1.1,6.3.3-.7.5-1.5.6-2.3h0v-.2h0Z"/>
      <path class="st1" d="M118.1,168.6c2.1,0,4.2-1.3,6.2-3.7s3.1-5.1,3.2-8.1h-5.1c-.3,1.1-1,2.4-2.4,3.5s-2.5,1.8-3.7,2l-.3-1.7c.8-.2,1.5-.9,2.2-2s1-2.3,1-3.5h11.8c-.3,4.1-1.6,7.6-4.1,10.6s-5.4,4.5-8.5,4.6l-.2-1.7v-.2.2h0Z"/>
      <path class="st1" d="M154.9,156.1h-.8c0,1.7-.7,3.2-1.9,4.5,1.2,1.2,2.2,1.8,2.9,1.8l-.2,1.4c-.4,0-.8-.2-1.2-.3v1.1h-6v1.2h5.2l-.2,1.3h-5.1v2.3h7.4l-.2,1.3h-16.7l-.2-1.3h2.8v-2.3c0-.6.2-1,.6-1.1s1,0,1.5,0l-.2,3.5h2.8l-.2-4.7h-5.9l-.2-1.2c-.3.3-.8.4-1.1.4l-.2-1.3c.3,0,.7-.4,1.2-1s.8-1.1.9-1.6h-1.7l-.2-4.1h3.1v-.6h-3.2v-1.3h3.2c0-.5.2-.9.6-1s.9-.2,1.3-.2v1.2h3.4l-.2,1.3h-3.2v.6h3.2l-.2,4.1h-1.7c.2.3.4.5.9.8.4.3.9.4,1.3.4l-.2,1.3c-.6,0-1.2-.3-1.9-.6s-1.1-.7-1.6-1v2.2h-1.7v-2c-.3.6-.6,1-1,1.5s-.7.7-1,.9h13.8c-1-.3-1.8-.8-2.7-1.4-1.2.9-2.3,1.3-3.2,1.3l-.2-1.3c.5,0,1.2-.3,2-1-1-.9-1.4-1.8-1.4-2.8.2-.5.5-.9,1-1s1-.3,1.5-.3c0,.7.2,1.5.7,2.2.6-1,1-2,1-3h-2.4c-.6.9-1.5,1.4-2.4,1.7l-.2-1.3c.2,0,.3-.4.5-1,.3-.6.3-1.1.3-1.4,0-.6.4-1,1.1-1s1.4-.2,2,0c0,.6-.3,1.2-.6,1.9h4.7l-.2,1.3.3-.2.2-.2h0ZM144.6,157.3h-1.4v1.5h1.4v-1.5ZM141.3,157.3h-1.4v1.5h1.4v-1.5Z"/>
      <path class="st1" d="M163.8,164c-.5.6-1.1,1-1.9,1.2l-.2-1.2c1.6-3,2.5-6.4,2.7-9.9,0-.8,1.1-1.2,3.2-1.2-.2,2.1-.4,3.7-.8,4.9-.3,1.2-.5,2.1-.6,2.6l-.3,10.3h-1.8l-.3-6.7h0ZM175.2,157.9c.2,2.2.7,4.4,1.6,6.4.9,2.2,1.6,3.3,2.1,3.6l-.3,1.2c-.5,0-1.3-.7-2.4-1.9s-1.8-2.5-2.4-4l-.2,4.4h1.9l-.2,1.3h-1.8v1.6h-2v-1.6h-1.7l-.2-1.3h1.7l-.2-4.4c-.3,1.5-1.1,2.8-2.3,3.9s-2,1.8-2.5,1.9l-.2-1.1c.7-.3,1.4-1.4,2.2-3.5s1.3-4.3,1.6-6.5h-2.8v-1.3h3.7v-2.5c0-.6.3-1,1-1.1.7,0,1.4-.2,2.1,0l-.2,3.7h3.9l-.2,1.3h-2.7.5,0Z"/>
      <path class="st1" d="M198.9,153.4h1.6c.6.2,1,.5,1.5,1l-1.2,1.2c-.4-1-1-1.6-1.9-1.8l-.2-.2s0-.2.2-.3h0ZM197.6,153.9c.5,0,1,0,1.5.3.6.3,1,.8,1.3,1.4l-1.4,1c-.2-.4-.3-.9-.7-1.2-.3-.3-.6-.7-.9-1s-.2-.3,0-.4c0,0,.2,0,.3-.2h-.1ZM198.9,156.8l1-.7c0,3.4-.8,6.3-2.4,8.5-1.5,2.3-3.2,3.8-5.1,4.5-1.9.8-3.8,1.1-5.8,1.1l-.3-2.5c3.1,0,5.8-.9,7.8-3,2.1-2.1,3.2-4.7,3.3-7.7,0-.6.3-1,1-1.1h0c.2.2.3.4.3.8h.2ZM185.9,157.1l-.2-1.6h5.7l-.2,1.6h-5.3ZM191.4,158.7l-.2,1.6h-4.9l-.2-1.6h5.3,0Z"/>
      <path class="st1" d="M207.7,168.9c1-.5,1.8-1.4,2.5-2.6.7-1.1,1.2-2.7,1.7-4.7.4-1.9.6-4.2.6-6.5s.2-.6.4-.7c.3-.2.6-.3,1.1-.3h1.8c0,3-.4,5.7-1.2,8s-1.7,4.3-2.9,5.8c2.1-.8,4.4-1.6,7.1-2.2-.4-.3-.8-.5-1.2-.7-.3,0-.3-.3,0-.8.3-.4.7-.8,1.2-1.1,1.1.2,1.9.9,2.4,2.1s.6,2.4.6,3.5l-.3,1.6c0-.4,0-.8-.3-1.1,0-.3-.3-.7-.5-1-4.6.7-8.9,1.4-12.9,2.2l-.2-1.3h0v-.2h0Z"/>
      <path class="st1" d="M138.2,119.2l-1.6.3,2.5,10.2,2-.4.2.6-9.9,2.4-.2-.6,2-.5-5-20.2-2,.5-.2-.6,9.2-2.3c2.6-.6,4.5-1,5.8-1s2,0,2.6.4c1.1.5,2,1.7,2.4,3.4.4,1.7.3,3-.3,4-.7,1-1.8,1.7-3.6,2.3h0c1.7,0,3,0,3.8.7.9.6,1.5,1.7,1.9,3.5l.4,1.7c.3,1,.5,1.7.7,2.1s.5.4.9.3c.3,0,.6-.3.8-.7s.2-1.1,0-2.3h.5c.2,1.7,0,3-.3,3.7-.4.7-1.5,1.3-3.1,1.7-1.7.4-3,.3-3.8-.3-.9-.6-1.6-2-2.2-4.2l-.5-2.2c-.3-1.1-.6-1.9-1-2.4s-1-.6-1.8-.4h0l-.2.3h0ZM134.1,109.6l2.4,9.4,1-.3c1.1-.3,1.9-.9,2.3-1.7s.3-2.1,0-3.7l-.3-.9c-.4-1.6-1-2.6-1.6-3-.7-.3-1.6-.4-2.8-.2l-1,.3h0Z"/>
      <path class="st1" d="M166,123c-.3,1.9,0,3.4.4,4.5.5,1.1,1.7,1.7,3.3,2,1.7.3,3,0,4.1-1s1.7-2.5,2-4.6l1.8-14.1-2-.3v-.6l4.6.6v.6l-1.8-.2-1.7,13.9c-.3,2.6-1.1,4.4-2.4,5.6s-3.4,1.5-6.3,1.1c-2.9-.3-5.1-1.2-6.4-2.6-1.4-1.4-1.8-3.6-1.5-6.5l1.7-13.5-1.7-.3v-.6l9.8,1.3v.6l-2.1-.3-1.8,14.6v-.2h0Z"/>
      <path class="st1" d="M188.3,111l9.3-2.3.2.6-1.7.4,2.4,9.7h.2l6.3-11.9-2.4.6-.2-.6,5.3-1.3.2.6-1.8.4-3.8,7.1,10.9,12.5,1.7-.4.2.6-9.8,2.4-.2-.6,1.4-.3-7.5-8.5-.3.2,2.4,9.7,1.7-.4.2.6-9.3,2.3-.2-.6,1.7-.4-5-20.2-1.7.4-.2-.6h0Z"/>
      <path class="st1" d="M228.5,122.9c-.5,1.8-.6,3.4-.3,4.5s1.4,2,3,2.4c1.7.5,3,.3,4.3-.4s2.1-2.2,2.7-4.3l4-13.7-2-.6.2-.5,4.4,1.3-.2.5-1.7-.4-3.9,13.4c-.7,2.5-1.8,4.2-3.3,5.1s-3.6,1-6.4,0c-2.8-.9-4.8-2-5.9-3.7-1.1-1.6-1.3-3.8-.4-6.6l3.8-13.1-1.7-.4.2-.5,9.5,2.8-.2.5-2-.6-4.1,14.1h0v.2h0Z"/>
      <path class="st1" d="M127,66.3h-2.3v.7h2.3l-.3,4.2h-2.2v.8h2.4v.9h-2.5v.9l2.8-.2-.2,1s-.6,0-1.6.3c-1,.2-1.9.3-2.9.5s-1.7.3-2,.3l-.3-1.7h2.7v-1h-2.2v-.9h2.2v-.8h-2.3l-.3-4.2h2.4v-.7h-2.1v-1h2.1v-.4h-2.2v-.9c.3,0,1,0,1.8-.2s1.6-.3,2.1-.4c.4-.2.9-.3,1.3-.3h1.2c0,.3-.3.7-.7,1-.4.3-1,.4-1.6.6v.8h2.3v1h0v-.3h0ZM123.1,67.9h-.7v.7h.8v-.7h-.1ZM122.4,70.2h.8v-.8h-.8v.8ZM124.6,70.2h.8v-.8h-.8v.8ZM125.4,67.9h-.7v.7h.7v-.7ZM129.8,66.7h2.4l-.4,9h-1.1v-8.1h-1c-.2,2.1-.4,3.9-.9,5.6s-1,2.4-1.7,2.5l-.2-.9c.3,0,.5-.8.8-2.3s.3-3.1.4-5h-1v-.9h1.1v-2.5c0-.4.3-.7.6-.8.3,0,.7-.2,1,0v1.7c0,.6,0,1.1,0,1.7Z"/>
      <path class="st1" d="M145.4,64v2.5h1.7v1.1h-1.7c-.2,2.3-.3,4.1-.7,5.4-.3,1.3-1,2.1-2.1,2.3v-1s.2-.2.3-.3c.2-.2.3-.4.3-.8,0-.9.2-1.7.2-2.6v-2.9h-3.3l-.2-1.1h3.4v-1.7c0-.2,0-.4.3-.5.2,0,.3-.2.7-.3h1.2-.2,0ZM138.7,74.6c-.8,0-1.3-.4-1.6-1s-.4-1.3-.6-2.1c-.3-1.9-.3-3.9-.3-5.9s0-.3.3-.5c.2,0,.3-.2.7-.3h1.1c0,1.4,0,2.7-.2,4.1v3.7c0,.2,0,.4.2.6s.3.3.4.3l-.2,1.1s.2,0,.2,0Z"/>
      <path class="st1" d="M151.1,68.2h.9l2.7-2.8h-2.5l-.2-1h6l-4.2,3.8h3.1c1.7,0,2.8.4,3.3,1,.5.7.8,1.5.8,2.4,0,1.5-.4,2.4-1.2,2.9-.7.5-1.7.8-3,.8h-3.5c-.8,0-1.4-.2-1.7-.5s-.6-.8-.6-1.4c0-1.2.8-1.7,2.3-1.8,1.2,0,2,.3,2.2,1,.3.6.2,1.1-.2,1.6h1.3c.6,0,1.1-.3,1.7-.6.5-.3.8-1,.8-1.9s-.2-1.2-.6-1.7c-.3-.4-1.1-.7-2.4-.8h-4.9v-1h-.1ZM153.3,72.8c-.7,0-1,.3-1.1.8,0,.4.4.7,1,.8.6,0,1-.3,1-.8s-.3-.7-1-.7h.1Z"/>
      <path class="st1" d="M169.7,63.8c0-.3.3-.3.8-.4h1.4v.7h4.4v.9h-4.4v.7h3.7v.9h-9.3v-.9h3.6v-.7h-4.3v-.9h4.3v-.2h-.2ZM174,70v.6c0,.2-.2.3-.3.6h3.1v1h-11.8v-1h3.7c0-.2-.3-.3-.4-.3-.2,0-.3-.2-.5-.3-.2-.2-.2-.3,0-.4h1.1c.4.3.6.7.6,1.1h2.7l.2-.2v-.4c0-.3.3-.3.6-.4h1v-.2h0ZM166.6,66.7h8.2l-.3,3h-7.8l-.2-3h.1ZM168.5,68.9h4.4v-1.2h-4.4v1.2ZM166.1,72.5h9.5l-.2,3.1h-1.4v-.3h-6.3v.3h-1.3l-.3-3.1h0ZM167.6,74.5h6.3v-1h-6.3v1Z"/>
      <path class="st1" d="M190,63.7h1c.4,0,.8.3,1,.7l-.8.9c-.3-.6-.7-1-1.3-1.3v-.4h.1ZM189,64c.3,0,.7,0,1,.3.4.2.7.5.9,1l-1,.6c0-.3-.3-.6-.4-.9s-.4-.5-.6-.6c0,0-.2-.2,0-.3h.2,0ZM190.3,68c0-.2-.2-.3-.3-.5l-.3-.2h-.3c1.1,1.5,1.4,3.2.9,5.2-.5,1.3-1.2,2.2-2.2,2.5-.9.3-1.8.5-2.7.5-1.3,0-2.3-.3-3-.9-.7-.6-1.3-1.6-1.7-3-.3-2.2.2-4.1,1.3-5.8h-1.2v-1.1h3.9v1.1c-1,1-1.7,2.2-2,3.6-.3,1.5-.2,2.6.2,3.5.4,1,1.3,1.4,2.6,1.5,1,0,1.8-.2,2.4-.6.5-.4.9-1,1-1.7,0-1.3,0-2.3-.3-3s-.8-1.3-1.4-1.7h-.4l-.2-1h3.2c.5,0,.9.2,1.2.5s.5.8.7,1.2h-1.4Z"/>
      <path class="st1" d="M195.8,73.5c-.3-.2-.3-.3-.3-.4,0,0,.2-.2.3-.3.4,0,1,.2,1.5.4.5.3,1,.7,1.2,1.3l-1.3,1c0-.4-.3-.8-.6-1.1s-.5-.7-.8-1h0Z"/>
      <path class="st1" d="M167.6,82.1h1c.4,0,.8.3,1,.8l-.8.9c-.3-.6-.7-1-1.3-1.3v-.4h.1ZM166.7,82.5c.3,0,.7,0,1,.3.4.2.7.5,1,1l-1,.7c0-.3-.3-.6-.4-.9s-.4-.5-.6-.6c0,0-.2-.2,0-.3h.2-.2v-.2ZM165.4,82.6v1.3h1.8s.2.3.3.5l.8-.5h.7l-.2,1.1h-3.5c0,2.3-.2,4.3-.3,5.8-.2.9-.4,1.6-1,2.1-.5.5-1.2.9-2.3,1v-1c.4,0,1-.2,1.3-.5s.5-1,.5-1.8h-1.2c-.8,0-1.4-.2-1.8-.6-.5-.3-.7-1-.8-1.7,0-1.3.9-2,2.4-2.2h1.3v-1h-5.4v-1.1h5.3v-.6c0-.2,0-.3.2-.4,0,0,.3-.2.7-.3h1.2-.2.2ZM162.2,89.4h1.4v-2.2h-1.2c-.5,0-.8,0-1,.3s-.3.4-.3.8,0,.6.3.8c.2.2.5.3.9.3h0Z"/>
      <path class="st1" d="M178.3,86.6c1,0,1.7.3,2.3,1,.6.5.9,1.4.8,2.6,0,1-.4,1.7-1,2.4-.6.6-1.3,1-2,1h-4.3v-.9h3.7c.5,0,1-.3,1.4-.8s.6-1.1.7-1.8c0-.9-.2-1.6-.5-2s-.9-.6-1.4-.7h-5.1v-.9h5.4Z"/>
      <path class="st1" d="M190.7,83v3h5.8l-.2,1h-5.4c-1,0-1.9.3-2.6.7-.6.4-1,1.1-1,2.2s.3,1.7,1,2.1c.6.4,1.4.7,2.4.7h5.5v1h-6.1c-1.1,0-2.2-.3-3.1-.9s-1.5-1.6-1.7-3c0-1,.3-1.9.8-2.6.5-.7,1.3-1.1,2.4-1.4v-2.4c0-.3,0-.4.2-.5.2,0,.3-.2.8-.3h1.1v.3h.1Z"/>
      <path class="st1" d="M200.4,88.4l-.2-1.3h11.8v1.3h-11.7,0Z"/>
      <path class="st1" d="M227.8,82.8c0,1-.3,1.8-.8,2.5-.4.7-.8,1.1-1,1.4h1.7v.9h-2.6c-.2.2-.3.3-.5.4h2.6l-.4,6.2h-1.3v-.3h-2.1v.3h-1.3l-.3-4.3s-.2,0-.3.2l-.2-1c.2,0,.3-.2.3-.3v-.9h1.2c.2-.2.3-.3.5-.4h-2v-.9h1v-1.8h-1v-.9h.9v-1.3c0-.4.3-.6.7-.7h1.4v2.1h.8v.9h-.9v1.7c.5-.9,1-1.8,1.6-3,.3-.6,1-1,1.8-.9h.2ZM223.4,93.1h2.1v-1.6h-2.1v1.6ZM225.4,90.6v-1.7h-2.1v1.7h2.1ZM217.7,82.6c.2-.3.5-.6,1-.6h1.5l-2.2,3.2.4.3.3-.5c.2-.3.5-.4,1-.5s1,0,1.4,0l-2.1,3h.6v-.2c0-.2,0-.3.3-.3h1s0,.2.2.5c0,.3.2.7.2,1v1s-.2-.2-.3-.3-.3-.3-.3-.6h-1l-.2,5.8h-1.2l-.2-5.6c-.4,0-.8.2-1.1.2h-.7l-.2-1.5h1.1l.9-1.3c-.3-.2-.5-.3-.8-.6-.3-.2-.6-.3-.9-.6-.2-.2-.2-.3-.2-.3,0,0,.2-.2.3-.2l1.3-1.9h-.3s.2,0,.2,0ZM221.2,89.4c0,1.2.2,2.4.3,3.5v1c-.4,0-.8-.4-1-1.1s-.5-1.6-.6-2.5c0-.3.2-.4.4-.6.3,0,.6-.2,1-.2h0ZM216.2,90.1c0-.3.2-.4.4-.6.3,0,.7-.2,1.1-.2,0,1.1-.3,2.1-.6,3s-.7,1.3-1.2,1.4v-1s0-.3.2-.7v-2h.1Z"/>
      <path class="st1" d="M234.1,94c-.8-.2-1.4-.6-1.7-1.4-.3-.7-.4-1.5-.5-2.2-.3-2.2-.3-4.3-.3-6.4s0-.3.3-.4c.2,0,.4-.2.7-.2h1.2c0,1.4-.2,2.8-.3,4.3v4.2c0,.3,0,.5.2.7,0,.2.3.3.3.3v1.1s.1,0,.1,0ZM236.8,85.8l-.2-1.2h5.9v1.2h-5.8.1ZM237.5,91.6c0,.3,0,.6.3.7.2.2.5.2,1,.2h3.9l-.2,1.1h-4.5c-.6,0-1-.3-1.4-.7-.3-.4-.5-1-.6-1.6,0-.3,0-.6.3-.8.3,0,.7-.2,1.1,0v1h0Z"/>
      <path class="st1" d="M246.6,92.2c0-.6.2-1,.6-1.5s.9-.6,1.5-.6,1,.2,1.5.6.6.9.6,1.5-.2,1-.6,1.4c-.4.4-.9.6-1.5.6s-1-.2-1.5-.6c-.4-.3-.6-.9-.6-1.4ZM247.9,91.7c0,.3,0,.4.3.7s.4.3.7.3.4,0,.7-.3.3-.4.3-.7,0-.4-.3-.7-.4-.3-.7-.3-.4,0-.7.3-.3.4-.3.7Z"/>
      <path class="st1" d="M73.7,168.7c1-.3,1.7-.8,2.1-1.5.4-.8.8-1.7,1-2.9s.3-2.4.3-3.7.4-1,1-1.1c.7,0,1.4-.2,2,0,0,3.4-.7,6-1.8,7.8s-2.6,2.8-4.4,3.1l-.2-1.6v-.2h0ZM83.3,156.3h-11.4l-.2-1.6h15c0,1.2-.3,2.3-.8,3.3-.5,1-1,1.9-1.8,2.7-.8.7-1.7,1.1-2.9,1.2l-.2-1.6c.6,0,1.1-.5,1.6-1.4.4-.8.7-1.7.7-2.7h0Z"/>
      <path class="st1" d="M99.4,157.1c0,3.6-.3,6.5-1.4,8.9s-2.4,3.7-3.9,4.3l-.2-1.6c.7-.2,1.1-.7,1.6-1.7.3-1,.6-2.2.7-3.8,0-1.6.2-3.2,0-5,0-.3,0-.6.3-.8.3-.2.6-.3,1-.3h1.9ZM106.3,166.5c0-.6.4-1,1-1.1s1-.2,1.6,0c-.3,1.3-.9,2.5-1.6,3.7-.3.7-.9,1.1-1.6,1.3-1.3-1-2.4-2.9-3.2-5.6-.8-2.8-1.2-5.9-1.2-9.6s.2-.6.4-.8.7-.3,1.1-.3h1.8c-.3,3.2-.3,6.1,0,8.6.2,2.5.6,4.6,1.1,6.3.3-.7.5-1.5.6-2.3h0v-.2h0Z"/>
      <path class="st1" d="M118.1,168.6c2.1,0,4.2-1.3,6.2-3.7s3.1-5.1,3.2-8.1h-5.1c-.3,1.1-1,2.4-2.4,3.5s-2.5,1.8-3.7,2l-.3-1.7c.8-.2,1.5-.9,2.2-2s1-2.3,1-3.5h11.8c-.3,4.1-1.6,7.6-4.1,10.6s-5.4,4.5-8.5,4.6l-.2-1.7v-.2.2h0Z"/>
      <path class="st1" d="M154.9,156.1h-.8c0,1.7-.7,3.2-1.9,4.5,1.2,1.2,2.2,1.8,2.9,1.8l-.2,1.4c-.4,0-.8-.2-1.2-.3v1.1h-6v1.2h5.2l-.2,1.3h-5.1v2.3h7.4l-.2,1.3h-16.7l-.2-1.3h2.8v-2.3c0-.6.2-1,.6-1.1s1,0,1.5,0l-.2,3.5h2.8l-.2-4.7h-5.9l-.2-1.2c-.3.3-.8.4-1.1.4l-.2-1.3c.3,0,.7-.4,1.2-1s.8-1.1.9-1.6h-1.7l-.2-4.1h3.1v-.6h-3.2v-1.3h3.2c0-.5.2-.9.6-1s.9-.2,1.3-.2v1.2h3.4l-.2,1.3h-3.2v.6h3.2l-.2,4.1h-1.7c.2.3.4.5.9.8.4.3.9.4,1.3.4l-.2,1.3c-.6,0-1.2-.3-1.9-.6s-1.1-.7-1.6-1v2.2h-1.7v-2c-.3.6-.6,1-1,1.5s-.7.7-1,.9h13.8c-1-.3-1.8-.8-2.7-1.4-1.2.9-2.3,1.3-3.2,1.3l-.2-1.3c.5,0,1.2-.3,2-1-1-.9-1.4-1.8-1.4-2.8.2-.5.5-.9,1-1s1-.3,1.5-.3c0,.7.2,1.5.7,2.2.6-1,1-2,1-3h-2.4c-.6.9-1.5,1.4-2.4,1.7l-.2-1.3c.2,0,.3-.4.5-1,.3-.6.3-1.1.3-1.4,0-.6.4-1,1.1-1s1.4-.2,2,0c0,.6-.3,1.2-.6,1.9h4.7l-.2,1.3.3-.2.2-.2h0ZM144.6,157.3h-1.4v1.5h1.4v-1.5ZM141.3,157.3h-1.4v1.5h1.4v-1.5Z"/>
      <path class="st1" d="M163.8,164c-.5.6-1.1,1-1.9,1.2l-.2-1.2c1.6-3,2.5-6.4,2.7-9.9,0-.8,1.1-1.2,3.2-1.2-.2,2.1-.4,3.7-.8,4.9-.3,1.2-.5,2.1-.6,2.6l-.3,10.3h-1.8l-.3-6.7h0ZM175.2,157.9c.2,2.2.7,4.4,1.6,6.4.9,2.2,1.6,3.3,2.1,3.6l-.3,1.2c-.5,0-1.3-.7-2.4-1.9s-1.8-2.5-2.4-4l-.2,4.4h1.9l-.2,1.3h-1.8v1.6h-2v-1.6h-1.7l-.2-1.3h1.7l-.2-4.4c-.3,1.5-1.1,2.8-2.3,3.9s-2,1.8-2.5,1.9l-.2-1.1c.7-.3,1.4-1.4,2.2-3.5s1.3-4.3,1.6-6.5h-2.8v-1.3h3.7v-2.5c0-.6.3-1,1-1.1.7,0,1.4-.2,2.1,0l-.2,3.7h3.9l-.2,1.3h-2.7.5,0Z"/>
      <path class="st1" d="M198.9,153.4h1.6c.6.2,1,.5,1.5,1l-1.2,1.2c-.4-1-1-1.6-1.9-1.8l-.2-.2s0-.2.2-.3h0ZM197.6,153.9c.5,0,1,0,1.5.3.6.3,1,.8,1.3,1.4l-1.4,1c-.2-.4-.3-.9-.7-1.2-.3-.3-.6-.7-.9-1s-.2-.3,0-.4c0,0,.2,0,.3-.2h-.1ZM198.9,156.8l1-.7c0,3.4-.8,6.3-2.4,8.5-1.5,2.3-3.2,3.8-5.1,4.5-1.9.8-3.8,1.1-5.8,1.1l-.3-2.5c3.1,0,5.8-.9,7.8-3,2.1-2.1,3.2-4.7,3.3-7.7,0-.6.3-1,1-1.1h0c.2.2.3.4.3.8h.2ZM185.9,157.1l-.2-1.6h5.7l-.2,1.6h-5.3ZM191.4,158.7l-.2,1.6h-4.9l-.2-1.6h5.3,0Z"/>
      <path class="st1" d="M207.7,168.9c1-.5,1.8-1.4,2.5-2.6.7-1.1,1.2-2.7,1.7-4.7.4-1.9.6-4.2.6-6.5s.2-.6.4-.7c.3-.2.6-.3,1.1-.3h1.8c0,3-.4,5.7-1.2,8s-1.7,4.3-2.9,5.8c2.1-.8,4.4-1.6,7.1-2.2-.4-.3-.8-.5-1.2-.7-.3,0-.3-.3,0-.8.3-.4.7-.8,1.2-1.1,1.1.2,1.9.9,2.4,2.1s.6,2.4.6,3.5l-.3,1.6c0-.4,0-.8-.3-1.1,0-.3-.3-.7-.5-1-4.6.7-8.9,1.4-12.9,2.2l-.2-1.3h0v-.2h0Z"/>
      <path class="st1" d="M138.2,119.2l-1.6.3,2.5,10.2,2-.4.2.6-9.9,2.4-.2-.6,2-.5-5-20.2-2,.5-.2-.6,9.2-2.3c2.6-.6,4.5-1,5.8-1s2,0,2.6.4c1.1.5,2,1.7,2.4,3.4.4,1.7.3,3-.3,4-.7,1-1.8,1.7-3.6,2.3h0c1.7,0,3,0,3.8.7.9.6,1.5,1.7,1.9,3.5l.4,1.7c.3,1,.5,1.7.7,2.1s.5.4.9.3c.3,0,.6-.3.8-.7s.2-1.1,0-2.3h.5c.2,1.7,0,3-.3,3.7-.4.7-1.5,1.3-3.1,1.7-1.7.4-3,.3-3.8-.3-.9-.6-1.6-2-2.2-4.2l-.5-2.2c-.3-1.1-.6-1.9-1-2.4s-1-.6-1.8-.4h0l-.2.3h0ZM134.1,109.6l2.4,9.4,1-.3c1.1-.3,1.9-.9,2.3-1.7s.3-2.1,0-3.7l-.3-.9c-.4-1.6-1-2.6-1.6-3-.7-.3-1.6-.4-2.8-.2l-1,.3h0Z"/>
      <path class="st1" d="M166,123c-.3,1.9,0,3.4.4,4.5.5,1.1,1.7,1.7,3.3,2,1.7.3,3,0,4.1-1s1.7-2.5,2-4.6l1.8-14.1-2-.3v-.6l4.6.6v.6l-1.8-.2-1.7,13.9c-.3,2.6-1.1,4.4-2.4,5.6s-3.4,1.5-6.3,1.1c-2.9-.3-5.1-1.2-6.4-2.6-1.4-1.4-1.8-3.6-1.5-6.5l1.7-13.5-1.7-.3v-.6l9.8,1.3v.6l-2.1-.3-1.8,14.6v-.2h0Z"/>
      <path class="st1" d="M188.3,111l9.3-2.3.2.6-1.7.4,2.4,9.7h.2l6.3-11.9-2.4.6-.2-.6,5.3-1.3.2.6-1.8.4-3.8,7.1,10.9,12.5,1.7-.4.2.6-9.8,2.4-.2-.6,1.4-.3-7.5-8.5-.3.2,2.4,9.7,1.7-.4.2.6-9.3,2.3-.2-.6,1.7-.4-5-20.2-1.7.4-.2-.6h0Z"/>
      <path class="st1" d="M228.5,122.9c-.5,1.8-.6,3.4-.3,4.5s1.4,2,3,2.4c1.7.5,3,.3,4.3-.4s2.1-2.2,2.7-4.3l4-13.7-2-.6.2-.5,4.4,1.3-.2.5-1.7-.4-3.9,13.4c-.7,2.5-1.8,4.2-3.3,5.1s-3.6,1-6.4,0c-2.8-.9-4.8-2-5.9-3.7-1.1-1.6-1.3-3.8-.4-6.6l3.8-13.1-1.7-.4.2-.5,9.5,2.8-.2.5-2-.6-4.1,14.1h0v.2h0Z"/>
      <path class="st1" d="M127,66.3h-2.3v.7h2.3l-.3,4.2h-2.2v.8h2.4v.9h-2.5v.9l2.8-.2-.2,1s-.6,0-1.6.3c-1,.2-1.9.3-2.9.5s-1.7.3-2,.3l-.3-1.7h2.7v-1h-2.2v-.9h2.2v-.8h-2.3l-.3-4.2h2.4v-.7h-2.1v-1h2.1v-.4h-2.2v-.9c.3,0,1,0,1.8-.2s1.6-.3,2.1-.4c.4-.2.9-.3,1.3-.3h1.2c0,.3-.3.7-.7,1-.4.3-1,.4-1.6.6v.8h2.3v1h0v-.3h0ZM123.1,67.9h-.7v.7h.8v-.7h-.1ZM122.4,70.2h.8v-.8h-.8v.8ZM124.6,70.2h.8v-.8h-.8v.8ZM125.4,67.9h-.7v.7h.7v-.7ZM129.8,66.7h2.4l-.4,9h-1.1v-8.1h-1c-.2,2.1-.4,3.9-.9,5.6s-1,2.4-1.7,2.5l-.2-.9c.3,0,.5-.8.8-2.3s.3-3.1.4-5h-1v-.9h1.1v-2.5c0-.4.3-.7.6-.8.3,0,.7-.2,1,0v1.7c0,.6,0,1.1,0,1.7Z"/>
      <path class="st1" d="M145.4,64v2.5h1.7v1.1h-1.7c-.2,2.3-.3,4.1-.7,5.4-.3,1.3-1,2.1-2.1,2.3v-1s.2-.2.3-.3c.2-.2.3-.4.3-.8,0-.9.2-1.7.2-2.6v-2.9h-3.3l-.2-1.1h3.4v-1.7c0-.2,0-.4.3-.5.2,0,.3-.2.7-.3h1.2-.2,0ZM138.7,74.6c-.8,0-1.3-.4-1.6-1s-.4-1.3-.6-2.1c-.3-1.9-.3-3.9-.3-5.9s0-.3.3-.5c.2,0,.3-.2.7-.3h1.1c0,1.4,0,2.7-.2,4.1v3.7c0,.2,0,.4.2.6s.3.3.4.3l-.2,1.1s.2,0,.2,0Z"/>
      <path class="st1" d="M151.1,68.2h.9l2.7-2.8h-2.5l-.2-1h6l-4.2,3.8h3.1c1.7,0,2.8.4,3.3,1,.5.7.8,1.5.8,2.4,0,1.5-.4,2.4-1.2,2.9-.7.5-1.7.8-3,.8h-3.5c-.8,0-1.4-.2-1.7-.5s-.6-.8-.6-1.4c0-1.2.8-1.7,2.3-1.8,1.2,0,2,.3,2.2,1,.3.6.2,1.1-.2,1.6h1.3c.6,0,1.1-.3,1.7-.6.5-.3.8-1,.8-1.9s-.2-1.2-.6-1.7c-.3-.4-1.1-.7-2.4-.8h-4.9v-1h-.1ZM153.3,72.8c-.7,0-1,.3-1.1.8,0,.4.4.7,1,.8.6,0,1-.3,1-.8s-.3-.7-1-.7h.1Z"/>
      <path class="st1" d="M169.7,63.8c0-.3.3-.3.8-.4h1.4v.7h4.4v.9h-4.4v.7h3.7v.9h-9.3v-.9h3.6v-.7h-4.3v-.9h4.3v-.2h-.2ZM174,70v.6c0,.2-.2.3-.3.6h3.1v1h-11.8v-1h3.7c0-.2-.3-.3-.4-.3-.2,0-.3-.2-.5-.3-.2-.2-.2-.3,0-.4h1.1c.4.3.6.7.6,1.1h2.7l.2-.2v-.4c0-.3.3-.3.6-.4h1v-.2h0ZM166.6,66.7h8.2l-.3,3h-7.8l-.2-3h.1ZM168.5,68.9h4.4v-1.2h-4.4v1.2ZM166.1,72.5h9.5l-.2,3.1h-1.4v-.3h-6.3v.3h-1.3l-.3-3.1h0ZM167.6,74.5h6.3v-1h-6.3v1Z"/>
      <path class="st1" d="M190,63.7h1c.4,0,.8.3,1,.7l-.8.9c-.3-.6-.7-1-1.3-1.3v-.4h.1ZM189,64c.3,0,.7,0,1,.3.4.2.7.5.9,1l-1,.6c0-.3-.3-.6-.4-.9s-.4-.5-.6-.6c0,0-.2-.2,0-.3h.2,0ZM190.3,68c0-.2-.2-.3-.3-.5l-.3-.2h-.3c1.1,1.5,1.4,3.2.9,5.2-.5,1.3-1.2,2.2-2.2,2.5-.9.3-1.8.5-2.7.5-1.3,0-2.3-.3-3-.9-.7-.6-1.3-1.6-1.7-3-.3-2.2.2-4.1,1.3-5.8h-1.2v-1.1h3.9v1.1c-1,1-1.7,2.2-2,3.6-.3,1.5-.2,2.6.2,3.5.4,1,1.3,1.4,2.6,1.5,1,0,1.8-.2,2.4-.6.5-.4.9-1,1-1.7,0-1.3,0-2.3-.3-3s-.8-1.3-1.4-1.7h-.4l-.2-1h3.2c.5,0,.9.2,1.2.5s.5.8.7,1.2h-1.4Z"/>
      <path class="st1" d="M195.8,73.5c-.3-.2-.3-.3-.3-.4,0,0,.2-.2.3-.3.4,0,1,.2,1.5.4.5.3,1,.7,1.2,1.3l-1.3,1c0-.4-.3-.8-.6-1.1s-.5-.7-.8-1h0Z"/>
      <path class="st1" d="M167.6,82.1h1c.4,0,.8.3,1,.8l-.8.9c-.3-.6-.7-1-1.3-1.3v-.4h.1ZM166.7,82.5c.3,0,.7,0,1,.3.4.2.7.5,1,1l-1,.7c0-.3-.3-.6-.4-.9s-.4-.5-.6-.6c0,0-.2-.2,0-.3h.2-.2v-.2ZM165.4,82.6v1.3h1.8s.2.3.3.5l.8-.5h.7l-.2,1.1h-3.5c0,2.3-.2,4.3-.3,5.8-.2.9-.4,1.6-1,2.1-.5.5-1.2.9-2.3,1v-1c.4,0,1-.2,1.3-.5s.5-1,.5-1.8h-1.2c-.8,0-1.4-.2-1.8-.6-.5-.3-.7-1-.8-1.7,0-1.3.9-2,2.4-2.2h1.3v-1h-5.4v-1.1h5.3v-.6c0-.2,0-.3.2-.4,0,0,.3-.2.7-.3h1.2-.2.2ZM162.2,89.4h1.4v-2.2h-1.2c-.5,0-.8,0-1,.3s-.3.4-.3.8,0,.6.3.8c.2.2.5.3.9.3h0Z"/>
      <path class="st1" d="M178.3,86.6c1,0,1.7.3,2.3,1,.6.5.9,1.4.8,2.6,0,1-.4,1.7-1,2.4-.6.6-1.3,1-2,1h-4.3v-.9h3.7c.5,0,1-.3,1.4-.8s.6-1.1.7-1.8c0-.9-.2-1.6-.5-2s-.9-.6-1.4-.7h-5.1v-.9h5.4Z"/>
      <path class="st1" d="M190.7,83v3h5.8l-.2,1h-5.4c-1,0-1.9.3-2.6.7-.6.4-1,1.1-1,2.2s.3,1.7,1,2.1c.6.4,1.4.7,2.4.7h5.5v1h-6.1c-1.1,0-2.2-.3-3.1-.9s-1.5-1.6-1.7-3c0-1,.3-1.9.8-2.6.5-.7,1.3-1.1,2.4-1.4v-2.4c0-.3,0-.4.2-.5.2,0,.3-.2.8-.3h1.1v.3h.1Z"/>
      <path class="st1" d="M200.4,88.4l-.2-1.3h11.8v1.3h-11.7,0Z"/>
      <path class="st1" d="M227.8,82.8c0,1-.3,1.8-.8,2.5-.4.7-.8,1.1-1,1.4h1.7v.9h-2.6c-.2.2-.3.3-.5.4h2.6l-.4,6.2h-1.3v-.3h-2.1v.3h-1.3l-.3-4.3s-.2,0-.3.2l-.2-1c.2,0,.3-.2.3-.3v-.9h1.2c.2-.2.3-.3.5-.4h-2v-.9h1v-1.8h-1v-.9h.9v-1.3c0-.4.3-.6.7-.7h1.4v2.1h.8v.9h-.9v1.7c.5-.9,1-1.8,1.6-3,.3-.6,1-1,1.8-.9h.2ZM223.4,93.1h2.1v-1.6h-2.1v1.6ZM225.4,90.6v-1.7h-2.1v1.7h2.1ZM217.7,82.6c.2-.3.5-.6,1-.6h1.5l-2.2,3.2.4.3.3-.5c.2-.3.5-.4,1-.5s1,0,1.4,0l-2.1,3h.6v-.2c0-.2,0-.3.3-.3h1s0,.2.2.5c0,.3.2.7.2,1v1s-.2-.2-.3-.3-.3-.3-.3-.6h-1l-.2,5.8h-1.2l-.2-5.6c-.4,0-.8.2-1.1.2h-.7l-.2-1.5h1.1l.9-1.3c-.3-.2-.5-.3-.8-.6-.3-.2-.6-.3-.9-.6-.2-.2-.2-.3-.2-.3,0,0,.2-.2.3-.2l1.3-1.9h-.3s.2,0,.2,0ZM221.2,89.4c0,1.2.2,2.4.3,3.5v1c-.4,0-.8-.4-1-1.1s-.5-1.6-.6-2.5c0-.3.2-.4.4-.6.3,0,.6-.2,1-.2h0ZM216.2,90.1c0-.3.2-.4.4-.6.3,0,.7-.2,1.1-.2,0,1.1-.3,2.1-.6,3s-.7,1.3-1.2,1.4v-1s0-.3.2-.7v-2h.1Z"/>
      <path class="st1" d="M234.1,94c-.8-.2-1.4-.6-1.7-1.4-.3-.7-.4-1.5-.5-2.2-.3-2.2-.3-4.3-.3-6.4s0-.3.3-.4c.2,0,.4-.2.7-.2h1.2c0,1.4-.2,2.8-.3,4.3v4.2c0,.3,0,.5.2.7,0,.2.3.3.3.3v1.1s.1,0,.1,0ZM236.8,85.8l-.2-1.2h5.9v1.2h-5.8.1ZM237.5,91.6c0,.3,0,.6.3.7.2.2.5.2,1,.2h3.9l-.2,1.1h-4.5c-.6,0-1-.3-1.4-.7-.3-.4-.5-1-.6-1.6,0-.3,0-.6.3-.8.3,0,.7-.2,1.1,0v1h0Z"/>
      <path class="st1" d="M246.6,92.2c0-.6.2-1,.6-1.5s.9-.6,1.5-.6,1,.2,1.5.6.6.9.6,1.5-.2,1-.6,1.4c-.4.4-.9.6-1.5.6s-1-.2-1.5-.6c-.4-.3-.6-.9-.6-1.4ZM247.9,91.7c0,.3,0,.4.3.7s.4.3.7.3.4,0,.7-.3.3-.4.3-.7,0-.4-.3-.7-.4-.3-.7-.3-.4,0-.7.3-.3.4-.3.7Z"/>
      <path class="st1" d="M104.3,89.7c-6.8,5-2.7,15.3,5.1,15.6,13.2.8,15.6-14.2,4.9-20.4-3.5-2.2-7.4-3.6-11.4-4.7-1-.3-1.9-.5-1.3-2h0v.3c1.3-3.3,2.5-6.5,3.7-9.6,1.1-3.9,7.5-12.5,1.7-14.6-5.7-2.4-9.6-7.9-12.1-13.5,0-.5,0-1.5-1.1-1.2-.7.3-.7,1.1-.7,1.7.2,2.4-1.3,4.1-2.1,6.4-.5-.8-.8-1.6-1.7-1.1-.9.5-.5,1.4-.2,2.2.9,1.2.8,1.7,0,2.8-.8,1.2-2.8-1.8-4.2.6-.8,1.4.2,2.2,1.3,2.8.8.4.8.9.5,1.7-1.1,3,3.2,3.5,4.9,2.1.2.1,0-1.7,1-.7.5.6.9,1.3.7,2.1,0,1-.8,0-1.2,0-4.9,2.7-5.9-1.9-7.3,1.1-1.7,3.6-3.5,7.2-5.7,10.6-.4.7-.9,1.4-1.9,1.1-4.9-1.5-12.8-4.5-10.9-11,.3-1,.9-1.4,2-1,6.5,2.3,13.7-5,11.6-11.4-11.3-23-42.3,11.9-7.8,27.8,2.7,1.2,2.8,1.4,1.1,3.9-.5,2-24.9,34.2-23.7,25.5.2-14.8-19.5-13.2-16.4,0,1.6,5.4,6.7,8.3,9.1,13.2,2.2,4,8.8.9,10.5-2.2,47.6-54.5,20.3-3.9,49,12-3.5,3.1-8.1.2-10,6.3-2.8,12.7,17.1,12.5,18.2,1,.5-2,.5-4.1,1.5-5.8,1.8-3.2-1.3-7.2-4.8-6.9-1.3.2-2.5-.3-3.5-1.2-10-9.1-7.5-24.4-4.9-36.1.2-1.1.6-1.5,1.9-.9s2.6,1.2,4,1.7c1.2.5,1.2.9.2,1.8ZM96.8,54.4c-.5,1.2-1.5,1.9-2.3,1.5-.8-.3-1.1-1.6-.6-2.7.5-1.2,1.5-1.9,2.3-1.5.8.3,1.1,1.6.6,2.7Z"/>
    </g>
  </g>
  <path class="st0" d="M57.3,69.5c0-.9.8-1.7,1.7-1.7s1.7.8,1.7,1.7-.8,1.7-1.7,1.7-1.7-.8-1.7-1.7Z"/>
  <path class="st0" d="M38.2,69.5c0-.9.8-1.7,1.7-1.7s1.7.8,1.7,1.7-.8,1.7-1.7,1.7-1.7-.8-1.7-1.7Z"/>
  <path class="st0" d="M19.1,69.5c0-.9.8-1.7,1.7-1.7s1.7.8,1.7,1.7-.8,1.7-1.7,1.7-1.7-.8-1.7-1.7Z"/>
  <path class="st0" d="M66.9,58.2c0-.9.8-1.7,1.7-1.7s1.7.8,1.7,1.7-.8,1.7-1.7,1.7-1.7-.8-1.7-1.7Z"/>
  <circle class="st0" cx="49.5" cy="58.2" r="1.7"/>
  <path class="st0" d="M28.7,58.2c0-.9.8-1.7,1.7-1.7s1.7.8,1.7,1.7-.8,1.7-1.7,1.7-1.7-.8-1.7-1.7Z"/>
  <path class="st0" d="M9.6,58.2c0-.9.8-1.7,1.7-1.7s1.7.8,1.7,1.7-.8,1.7-1.7,1.7-1.7-.8-1.7-1.7Z"/>
  <path class="st0" d="M76.4,46.9c0-.9.8-1.7,1.7-1.7s1.7.8,1.7,1.7-.8,1.7-1.7,1.7-1.7-.8-1.7-1.7Z"/>
  <path class="st0" d="M57.3,46.9c0-.9.8-1.7,1.7-1.7s1.7.8,1.7,1.7-.8,1.7-1.7,1.7-1.7-.8-1.7-1.7Z"/>
  <path class="st0" d="M38.2,46.9c0-.9.8-1.7,1.7-1.7s1.7.8,1.7,1.7-.8,1.7-1.7,1.7-1.7-.8-1.7-1.7Z"/>
  <path class="st0" d="M19.1,46.9c0-.9.8-1.7,1.7-1.7s1.7.8,1.7,1.7-.8,1.7-1.7,1.7-1.7-.8-1.7-1.7Z"/>
  <path class="st0" d="M0,46.9c0-.9.8-1.7,1.7-1.7s1.7.8,1.7,1.7-.8,1.7-1.7,1.7-1.7-.8-1.7-1.7Z"/>
  <path class="st0" d="M66.9,35.6c0-.9.8-1.7,1.7-1.7s1.7.8,1.7,1.7-.8,1.7-1.7,1.7-1.7-.8-1.7-1.7Z"/>
  <path class="st0" d="M47.8,35.6c0-.9.8-1.7,1.7-1.7s1.7.8,1.7,1.7-.8,1.7-1.7,1.7-1.7-.8-1.7-1.7Z"/>
  <path class="st0" d="M28.7,35.6c0-.9.8-1.7,1.7-1.7s1.7.8,1.7,1.7-.8,1.7-1.7,1.7-1.7-.8-1.7-1.7Z"/>
  <path class="st0" d="M9.6,35.6c0-.9.8-1.7,1.7-1.7s1.7.8,1.7,1.7-.8,1.7-1.7,1.7-1.7-.8-1.7-1.7Z"/>
  <path class="st0" d="M76.4,24.3c0-.9.8-1.7,1.7-1.7s1.7.8,1.7,1.7-.8,1.7-1.7,1.7-1.7-.8-1.7-1.7Z"/>
  <path class="st0" d="M57.3,24.3c0-.9.8-1.7,1.7-1.7s1.7.8,1.7,1.7-.8,1.7-1.7,1.7-1.7-.8-1.7-1.7Z"/>
  <path class="st0" d="M38.2,24.3c0-.9.8-1.7,1.7-1.7s1.7.8,1.7,1.7-.8,1.7-1.7,1.7-1.7-.8-1.7-1.7Z"/>
  <path class="st0" d="M19.1,24.3c0-.9.8-1.7,1.7-1.7s1.7.8,1.7,1.7-.8,1.7-1.7,1.7-1.7-.8-1.7-1.7Z"/>
  <path class="st0" d="M0,24.3c0-.9.8-1.7,1.7-1.7s1.7.8,1.7,1.7-.8,1.7-1.7,1.7-1.7-.8-1.7-1.7Z"/>
  <path class="st0" d="M66.9,13c0-.9.8-1.7,1.7-1.7s1.7.8,1.7,1.7-.8,1.7-1.7,1.7-1.7-.8-1.7-1.7Z"/>
  <path class="st0" d="M47.8,13c0-.9.8-1.7,1.7-1.7s1.7.8,1.7,1.7-.8,1.7-1.7,1.7-1.7-.8-1.7-1.7Z"/>
  <path class="st0" d="M28.7,13c0-.9.8-1.7,1.7-1.7s1.7.8,1.7,1.7-.8,1.7-1.7,1.7-1.7-.8-1.7-1.7Z"/>
  <path class="st0" d="M9.6,13c0-.9.8-1.7,1.7-1.7s1.7.8,1.7,1.7-.8,1.7-1.7,1.7-1.7-.8-1.7-1.7Z"/>
  <path class="st0" d="M57.3,1.7c0-.9.8-1.7,1.7-1.7s1.7.8,1.7,1.7-.8,1.7-1.7,1.7-1.7-.8-1.7-1.7Z"/>
  <path class="st0" d="M38.2,1.7c0-.9.8-1.7,1.7-1.7s1.7.8,1.7,1.7-.8,1.7-1.7,1.7-1.7-.8-1.7-1.7Z"/>
  <path class="st0" d="M19.1,1.7c0-.9.8-1.7,1.7-1.7s1.7.8,1.7,1.7-.8,1.7-1.7,1.7-1.7-.8-1.7-1.7Z"/>
  <g>
    <polygon class="st2" points="278.7 194.3 280.2 200.4 275.1 201.9 273.1 195.8 278.7 194.3"/>
    <polygon class="st2" points="252.4 188.4 253.8 194.1 248.8 195.3 247.5 189.9 252.4 188.4"/>
    <polygon class="st2" points="258.9 181.8 259.9 185.9 255.2 187.2 253.9 182.6 258.9 181.8"/>
    <polygon class="st2" points="240.8 179.9 241.9 184.4 238.4 185.5 236.7 181.4 240.8 179.9"/>
    <polygon class="st2" points="239.6 192.4 240.4 196.7 236.6 198 235 193.5 239.6 192.4"/>
    <polygon class="st2" points="256.8 206.7 258.2 211.6 254 212.8 252.5 208.5 256.8 206.7"/>
    <polygon class="st2" points="263.6 193.6 265.1 198.2 261 199.3 259.7 194.6 263.6 193.6"/>
    <polygon class="st2" points="269.2 183 270.6 187.9 266.1 189 264.8 184.3 269.2 183"/>
    <polygon class="st2" points="243.3 206.6 241.9 201.7 246.4 200.6 247.6 205.3 243.3 206.6"/>
    <polygon class="st2" points="279.9 178.4 281.6 183.6 277.1 185 275.7 179.4 279.9 178.4"/>
    <polygon class="st2" points="268.2 172.4 269.7 177.4 265.2 178.8 264.1 173.7 268.2 172.4"/>
    <polygon class="st2" points="222.9 198.8 224.6 204.9 229.8 203.7 228.6 197.4 222.9 198.8"/>
    <polygon class="st2" points="210.6 177.5 212.1 183.1 217.1 181.7 215.6 176.4 210.6 177.5"/>
    <polygon class="st2" points="201.6 174.9 202.8 178.9 207.6 177.8 206.4 173.2 201.6 174.9"/>
    <polygon class="st2" points="245.8 171.9 247.1 176.3 250.7 175.5 250.1 171.2 245.8 171.9"/>
    <polygon class="st2" points="223.7 174.7 225.1 178.8 229 178.2 228.3 173.4 223.7 174.7"/>
    <polygon class="st2" points="210.3 197.2 211.5 202.1 215.8 201.2 215 196.6 210.3 197.2"/>
    <polygon class="st2" points="203.4 187.5 204.3 192.3 208.4 191.2 207.2 186.4 203.4 187.5"/>
    <polygon class="st2" points="193.3 180.9 194.4 186 198.9 184.7 197.7 180 193.3 180.9"/>
    <polygon class="st2" points="227.4 189 226.3 183.9 221.7 185.2 223 189.9 227.4 189"/>
    <polygon class="st2" points="189.9 192.8 190.9 198.2 195.5 197.2 194 191.6 189.9 192.8"/>
    <polygon class="st2" points="178.6 177.6 179.7 182.7 184.3 181.7 182.8 176.7 178.6 177.6"/>
  </g>
  <g>
    <path class="st4" d="M8.4,155.1c.5,1,1.4,1.5,2.6,1.7.7,0,1.4,0,2-.4.5-.3.9-.8,1.1-1.3.2-.4.2-.9.2-1.3,0-.5-.1-1-.4-1.4-.6-.8-1.7-1-2.6-1.1-.3,0-.6,0-.9,0-.3.1-.5.3-.7.6-.4.4-.8.8-1,1.3-.3.5-.5,1.4-.2,2Z"/>
    <path class="st4" d="M32.9,159.9c-.5,1-.4,2.1.2,3.1.3.6.9,1,1.5,1.3.6.2,1.2.2,1.7,0,.4-.2.8-.4,1.2-.7.4-.3.8-.8.9-1.2.3-.9-.2-1.9-.7-2.7-.2-.3-.3-.5-.6-.7-.3-.2-.6-.2-.9-.2-.6,0-1.1,0-1.7,0s-1.4.6-1.7,1.2Z"/>
    <path class="st4" d="M21.4,176.7c.3.5.5,1.1,1,1.5.3.3.6.5,1,.5.9.2,1.9-.4,2.6-1.1.3-.3.5-.6.7-1,.6-1.1.3-2.6-.6-3.4-.9-.8-2.5-.8-3.5,0-.3.3-.6.6-.9.9-.2.3-.5.6-.6,1-.1.4,0,.8.3,1.5Z"/>
    <path class="st4" d="M13.9,168.6c0,.9,0,1.5,1.1,2.3.1,0,.9.4,1,.4.6.1,1,0,1.6,0,.5,0,.9-.3,1.3-.6,1-.9,1.2-2.4.6-3.4-.6-1.1-2.1-1.6-3.3-1.2-1.2.4-2.3,1.4-2.3,2.5Z"/>
    <path class="st4" d="M58.3,166.5c0,.9,0,1.5,1.1,2.3.1,0,.9.4,1,.4.6.1,1,0,1.6,0,.5,0,.9-.3,1.3-.6,1-.9,1.2-2.4.6-3.4s-2.1-1.6-3.3-1.2c-1.2.4-2.3,1.4-2.3,2.5Z"/>
    <path class="st4" d="M18.1,153c.2.6.6,1.1,1.2,1.5.5.4,1.2.5,1.8.4.5-.1,1-.4,1.4-.8.4-.4.8-.9,1-1.4.2-.5.3-1.1,0-1.7-.3-.7-.9-1.2-1.6-1.5-.4-.2-.9-.5-1.3-.4-.4,0-.7.3-1,.5-.6.4-1.1.9-1.5,1.5-.4.6-.4,1.2,0,2Z"/>
    <path class="st4" d="M21.6,164.1c.6.4,1.2.8,1.9.8.4,0,.8-.2,1.1-.4.4-.2.7-.4,1-.7.3-.4.5-.8.6-1.3,0-.3.2-.6.2-.9,0-.9-1-1.5-1.8-2-.6-.3-1.3-.6-1.9-.4-.3,0-.6.3-.8.5-.6.6-1.1,1.2-1.3,2s0,1.8.9,2.3Z"/>
    <path class="st4" d="M64.7,178.3c.6.4,1.2.8,1.9.8.4,0,.8-.2,1.1-.4.4-.2.7-.4,1-.7.3-.4.5-.8.6-1.3,0-.3.2-.6.2-.9,0-.9-1-1.5-1.8-2-.6-.3-1.3-.6-1.9-.4-.3,0-.6.3-.8.5-.6.6-1.1,1.2-1.3,2s0,1.8.9,2.3Z"/>
    <path class="st4" d="M44,176.2c.6-1,.7-2,.2-3.1-.3-.6-.7-1.1-1.4-1.5-.5-.3-1.1-.4-1.7-.2-.5,0-.9.3-1.3.6-.4.3-.8.7-1.1,1.1-.4.9,0,1.9.3,2.8.1.3.2.6.5.8.2.2.5.2.8.3.5,0,1.1.2,1.7.1.6,0,1.5-.4,1.9-.9Z"/>
    <path class="st4" d="M51.7,159.8c.4-.5.7-1,.9-1.6,0-.4.1-.8,0-1.1-.3-.9-1.3-1.4-2.2-1.6-.4,0-.8-.1-1.2,0-1.3.1-2.4,1.2-2.6,2.4-.2,1.2.5,2.5,1.7,2.9.4.1.8.2,1.2.2.4,0,.8,0,1.1,0s.7-.3,1.2-1Z"/>
    <path class="st4" d="M52.8,182.7c.8-.5,1.3-.8,1.5-2.2,0-.1-.1-.9-.1-1.1-.2-.6-.4-.9-.8-1.3-.3-.4-.7-.6-1.2-.7-1.2-.3-2.7.3-3.3,1.4s-.4,2.6.6,3.4,2.4,1.2,3.3.6Z"/>
    <path class="st4" d="M34.9,174.8c.4-.5.7-1.1.7-1.8,0-.6-.1-1.3-.6-1.7-.4-.4-.9-.6-1.4-.7-.6-.1-1.2-.2-1.7-.1-.6,0-1.1.4-1.5.8-.5.6-.6,1.4-.6,2.2,0,.5,0,1,.3,1.3.2.3.6.4.9.5.7.2,1.3.5,2,.5.7,0,1.3-.3,1.8-1.1Z"/>
    <path class="st4" d="M52.1,168.9c0-.7,0-1.5-.3-2.1-.2-.3-.5-.5-.9-.7-.4-.2-.7-.4-1.1-.4-.5,0-1,0-1.4.2-.3,0-.6.2-.9.4-.7.5-.9,1.6-.8,2.6,0,.7.1,1.4.6,1.8.2.2.6.3.9.4.8.2,1.6.3,2.4,0,.8-.3,1.5-1,1.6-2Z"/>
    <path class="st4" d="M39.3,188.2c.6-.4,1.3-.8,1.6-1.4.2-.4.2-.8.2-1.1,0-.4,0-.8-.3-1.2-.2-.4-.6-.8-.9-1.1-.2-.2-.5-.4-.8-.5-.9-.3-1.8.3-2.6.9-.5.4-1.1.9-1.2,1.5,0,.3,0,.6.1.9.3.7.7,1.5,1.3,1.9.7.5,1.7.6,2.6,0Z"/>
  </g>
</svg>