<?xml version="1.0" encoding="UTF-8"?>
<svg id="_レイヤー_1" xmlns="http://www.w3.org/2000/svg" version="1.1" viewBox="0 0 250 151">
  <!-- Generator: Adobe Illustrator 29.1.0, SVG Export Plug-In . SVG Version: 2.1.0 Build 142)  -->
  <defs>
    <style>
      .st0 {
        fill: #c2926a;
      }
    </style>
  </defs>
  <path class="st0" d="M46.9,148.6c1.1-.3,1.9-.9,2.4-1.7.5-.9.9-2,1.2-3.3.2-1.4.4-2.8.3-4.2,0-.7.5-1.2,1.2-1.3.8-.1,1.6-.2,2.3,0,0,3.9-.8,6.9-2.1,8.9s-3,3.2-5.1,3.6l-.2-1.8v-.2ZM57.9,134.4h-13.1l-.2-1.8h17.2c0,1.4-.4,2.6-.9,3.8s-1.1,2.2-2.1,3.1c-.9.8-2,1.3-3.3,1.4l-.2-1.8c.7,0,1.3-.6,1.8-1.6.5-.9.8-2,.8-3.1h0Z"/>
  <path class="st0" d="M76.3,135.3c0,4.1-.4,7.5-1.6,10.2s-2.7,4.3-4.5,4.9l-.2-1.8c.8-.2,1.3-.8,1.8-1.9.4-1.1.7-2.5.8-4.4,0-1.8.2-3.7,0-5.7,0-.4,0-.7.4-.9.3-.2.7-.4,1.2-.4s1.2-.1,2,0h0ZM84.3,146.1c0-.7.5-1.1,1.1-1.3s1.2-.2,1.8-.1c-.4,1.5-1,2.9-1.8,4.2-.4.8-1,1.3-1.8,1.5-1.5-1.1-2.8-3.3-3.7-6.4-.9-3.2-1.4-6.8-1.4-11s.2-.7.5-.9.8-.4,1.3-.4,1.3-.1,2.1,0c-.3,3.7-.3,7,0,9.9.2,2.9.7,5.3,1.3,7.2.4-.8.6-1.7.7-2.6h0Z"/>
  <path class="st0" d="M97.8,148.5c2.4-.1,4.8-1.5,7.1-4.2,2.3-2.7,3.6-5.8,3.7-9.3h-5.9c-.3,1.3-1.2,2.7-2.7,4s-2.9,2.1-4.3,2.3l-.3-1.9c.9-.2,1.7-1,2.5-2.3s1.1-2.6,1.1-4h13.5c-.3,4.7-1.8,8.7-4.7,12.2-2.9,3.4-6.2,5.2-9.8,5.3l-.2-1.9v-.2Z"/>
  <path class="st0" d="M140,134.1h-.9c0,2-.8,3.7-2.2,5.2,1.4,1.4,2.5,2.1,3.3,2.1l-.2,1.6c-.5,0-.9-.2-1.4-.3v1.3h-6.9v1.4h6l-.2,1.5h-5.9v2.6h8.5l-.2,1.5h-19.2l-.2-1.5h3.2v-2.6c0-.7.2-1.2.7-1.3s1.1-.1,1.7,0l-.2,4h3.2l-.2-5.4h-6.8l-.2-1.4c-.4.3-.9.5-1.3.5l-.2-1.5c.4,0,.8-.5,1.4-1.2s.9-1.3,1-1.8h-2l-.2-4.7h3.6v-.7h-3.7v-1.5c0,0,3.7,0,3.7,0,0-.6.2-1,.7-1.2s1-.2,1.5-.2v1.4h3.9l-.2,1.5h-3.7v.7h3.7l-.2,4.7h-1.9c.2.3.5.6,1,.9.5.3,1,.5,1.5.5l-.2,1.5c-.7,0-1.4-.3-2.2-.7s-1.3-.8-1.8-1.2v2.5h-1.9v-2.3c-.3.7-.7,1.2-1.2,1.7s-.8.8-1.1,1h15.8c-1.1-.4-2.1-.9-3.1-1.6-1.4,1-2.6,1.5-3.7,1.5l-.2-1.5c.6,0,1.4-.4,2.3-1.2-1.1-1-1.6-2.1-1.6-3.2.2-.6.6-1,1.1-1.2s1.1-.3,1.7-.3c0,.8.2,1.7.8,2.5.7-1.1,1.1-2.3,1.1-3.5h-2.7c-.7,1-1.7,1.6-2.8,2l-.2-1.5c.2,0,.4-.5.6-1.2.3-.7.4-1.3.4-1.6,0-.7.5-1.1,1.3-1.2.8-.1,1.6-.2,2.3-.1-.1.7-.4,1.4-.7,2.2h5.4l-.2,1.5.3-.2ZM128.2,135.5h-1.6v1.7h1.6v-1.7ZM124.5,135.5h-1.6v1.7h1.6v-1.7Z"/>
  <path class="st0" d="M150.3,143.2c-.6.7-1.3,1.2-2.2,1.4l-.2-1.4c1.8-3.5,2.9-7.3,3.1-11.4,0-.9,1.3-1.4,3.7-1.4-.2,2.4-.5,4.2-.9,5.6-.3,1.4-.6,2.4-.7,3l-.4,11.8h-2.1l-.3-7.7h0ZM163.3,136.2c.2,2.5.8,5,1.8,7.4,1,2.5,1.8,3.8,2.4,4.1l-.3,1.4c-.6,0-1.5-.8-2.7-2.2s-2.1-2.9-2.7-4.6l-.2,5.1h2.2l-.2,1.5h-2.1v1.8h-2.3v-1.8h-2l-.2-1.5h2l-.2-5.1c-.4,1.7-1.3,3.2-2.6,4.5s-2.3,2.1-2.9,2.2l-.2-1.3c.8-.3,1.6-1.6,2.5-4s1.5-4.9,1.8-7.5h-3.2v-1.5c-.1,0,4.2,0,4.2,0v-2.9c0-.7.4-1.1,1.2-1.3.8-.1,1.6-.2,2.4-.1l-.2,4.3h4.5l-.2,1.5h-3.1.3Z"/>
  <path class="st0" d="M190.6,131c.6-.1,1.2-.1,1.8,0,.7.2,1.2.6,1.7,1.2l-1.4,1.4c-.5-1.1-1.2-1.8-2.2-2.1-.1,0-.2-.2-.2-.2,0,0,0-.2.2-.3h0ZM189,131.6c.6,0,1.1.1,1.7.4.7.4,1.2.9,1.5,1.6l-1.6,1.1c-.2-.5-.4-1-.8-1.4-.3-.4-.7-.8-1-1.1s-.2-.3-.1-.5c0,0,.2-.1.3-.2h0ZM190.6,134.9l1.2-.8c0,3.9-.9,7.2-2.7,9.8-1.7,2.6-3.7,4.4-5.9,5.2-2.2.9-4.4,1.3-6.7,1.3l-.4-2.9c3.6.1,6.6-1,9-3.5,2.4-2.4,3.7-5.4,3.8-8.8,0-.7.4-1.1,1.1-1.3h.1c.2.2.3.5.4.9h0ZM175.6,135.3l-.2-1.8h6.5l-.2,1.8h-6.1ZM181.9,137.1l-.2,1.8h-5.6l-.2-1.8h6Z"/>
  <path class="st0" d="M200.6,148.8c1.1-.6,2.1-1.6,2.9-3,.8-1.3,1.4-3.1,1.9-5.4.5-2.2.7-4.8.7-7.5s.2-.7.5-.8c.3-.2.7-.3,1.3-.4.5-.1,1.2-.1,2.1,0,0,3.4-.5,6.5-1.4,9.2s-2,4.9-3.3,6.7c2.4-.9,5.1-1.8,8.1-2.5-.5-.4-.9-.6-1.4-.8-.3-.1-.3-.4.1-.9.4-.5.8-.9,1.4-1.3,1.3.2,2.2,1,2.7,2.4s.7,2.7.7,4l-.3,1.8c0-.5-.1-.9-.3-1.3-.1-.4-.3-.8-.6-1.2-5.3.8-10.2,1.6-14.8,2.5l-.2-1.5h0Z"/>
  <path class="st0" d="M120.9,91.8l-1.8.4,2.9,11.7,2.3-.5.2.7-11.4,2.8-.2-.7,2.3-.6-5.7-23.2-2.3.6-.2-.7,10.6-2.6c3-.7,5.2-1.1,6.6-1.1s2.3,0,3,.5c1.3.6,2.3,2,2.7,3.9.5,2,.4,3.5-.4,4.6-.8,1.1-2.1,2-4.1,2.6h0c1.9,0,3.4,0,4.4.8,1,.7,1.7,2,2.2,4l.5,1.9c.3,1.2.6,2,.8,2.4s.6.5,1,.4c.4,0,.7-.4.9-.8s.2-1.3,0-2.6h.6c.2,2,.1,3.4-.4,4.3-.5.8-1.7,1.5-3.6,1.9-1.9.5-3.4.4-4.4-.3-1-.7-1.8-2.3-2.5-4.8l-.6-2.5c-.3-1.3-.7-2.2-1.2-2.7s-1.2-.7-2.1-.5h-.1ZM116.2,80.8l2.7,10.8,1.1-.3c1.3-.3,2.2-1,2.6-2s.4-2.4,0-4.2l-.3-1c-.5-1.8-1.1-3-1.8-3.4-.8-.4-1.8-.5-3.2-.2,0,0-1.1.3-1.1.3Z"/>
  <path class="st0" d="M152.8,96.2c-.3,2.2-.1,3.9.5,5.2.6,1.3,1.9,2,3.8,2.3,2,.3,3.5,0,4.7-1.2s2-2.9,2.3-5.3l2.1-16.2-2.3-.3v-.7l5.3.7v.7l-2.1-.2-2,15.9c-.4,3-1.3,5.1-2.8,6.4s-3.9,1.7-7.2,1.3c-3.3-.4-5.8-1.4-7.4-3-1.6-1.6-2.1-4.1-1.7-7.5l2-15.5-1.9-.3v-.7l11.3,1.5v.7l-2.4-.3-2.1,16.7v-.2Z"/>
  <path class="st0" d="M178.4,82.4l10.7-2.6.2.7-1.9.5,2.7,11.1h.2c0,0,7.2-13.6,7.2-13.6l-2.8.7-.2-.7,6.1-1.5.2.7-2.1.5-4.4,8.2,12.5,14.4,1.9-.5.2.7-11.2,2.8-.2-.7,1.6-.4-8.6-9.8-.3.2,2.8,11.1,1.9-.5.2.7-10.7,2.6-.2-.7,1.9-.5-5.7-23.2-1.9.5-.2-.7h.1Z"/>
  <path class="st0" d="M224.5,96.1c-.6,2.1-.7,3.9-.4,5.2.4,1.3,1.6,2.3,3.4,2.8,1.9.6,3.5.4,4.9-.5s2.4-2.5,3.1-4.9l4.6-15.7-2.3-.7.2-.6,5.1,1.5-.2.6-1.9-.5-4.5,15.4c-.8,2.9-2.1,4.8-3.8,5.8s-4.1,1.1-7.4,0c-3.2-1-5.5-2.3-6.8-4.2-1.3-1.8-1.5-4.4-.5-7.6l4.4-15-1.9-.5.2-.6,10.9,3.2-.2.6-2.3-.7-4.7,16.2h0Z"/>
  <path class="st0" d="M108,31.1h-2.6v.8h2.6l-.3,4.8h-2.5v.9h2.8v1h-2.9v1l3.2-.2-.2,1.1c0,0-.7,0-1.8.3-1.1.2-2.2.4-3.3.6-1.1.2-1.9.3-2.3.4l-.3-2h3.1v-1.2h-2.5v-1h2.5v-.9h-2.6l-.3-4.8h2.7v-.8h-2.4v-1.1h2.4v-.5c-.4,0-.8,0-1.2.1h-1.4v-1c.4,0,1.2,0,2.1-.2s1.8-.3,2.4-.5c.5-.2,1-.3,1.5-.4.5,0,1-.1,1.4-.1,0,.4-.3.8-.8,1.1-.5.3-1.1.5-1.8.7v.9h2.6v1.1h0ZM103.5,32.9h-.8v.8h.9v-.8h0ZM102.7,35.6h.9v-.9h-.9v.9ZM105.3,35.6h.9v-.9h-.9v.9ZM106.2,32.9h-.8v.8h.8v-.8ZM111.3,31.5h2.8l-.5,10.3h-1.3v-9.3h-1.1c-.2,2.4-.5,4.5-1,6.4s-1.1,2.8-2,2.9l-.2-1c.4,0,.6-.9.9-2.6.3-1.7.4-3.6.5-5.7h-1.2v-1c0,0,1.3,0,1.3,0v-2.9c0-.5.3-.8.7-.9.4-.1.8-.2,1.2-.1v1.9c0,.7,0,1.3-.1,2Z"/>
  <path class="st0" d="M129.1,28.5v2.9h2v1.3h-2c-.2,2.6-.4,4.7-.8,6.2-.4,1.5-1.2,2.4-2.4,2.6v-1.2s.2-.2.4-.4c.2-.2.3-.5.4-.9,0-1,.2-2,.2-3v-3.3h-3.8l-.2-1.3h3.9v-1.9c0-.2,0-.5.3-.6.2-.1.4-.2.8-.3.4,0,.8-.1,1.4,0h-.2ZM121.5,40.6c-.9,0-1.5-.5-1.8-1.2s-.5-1.5-.7-2.4c-.3-2.2-.4-4.5-.4-6.8s0-.4.3-.6c.2-.1.4-.2.8-.3.4,0,.8-.1,1.3,0,0,1.6,0,3.1-.2,4.7,0,1.5,0,3,0,4.3,0,.2,0,.5.2.7s.3.3.5.3l-.2,1.3h0Z"/>
  <path class="st0" d="M135.7,33.3h1l3.1-3.2h-2.9l-.2-1.2h6.9l-4.8,4.4h3.6c1.9,0,3.2.5,3.8,1.2.6.8.9,1.7.9,2.8,0,1.7-.5,2.8-1.4,3.3-.8.6-2,.9-3.5.9h-4c-.9,0-1.6-.2-2-.6-.4-.3-.7-.9-.7-1.6,0-1.4.9-2,2.6-2.1,1.4,0,2.3.4,2.5,1.1.3.7.2,1.3-.2,1.8h1.5c.7,0,1.3-.3,1.9-.7.6-.4.9-1.2.9-2.2s-.2-1.4-.7-1.9c-.4-.5-1.3-.8-2.7-.9h-5.6v-1.2h0ZM138.2,38.6c-.8,0-1.2.3-1.3.9,0,.5.5.8,1.2.9.7,0,1.1-.4,1.1-.9s-.4-.8-1.1-.8h.1Z"/>
  <path class="st0" d="M157,28.2c0-.3.4-.4.9-.5h1.6v.8h5v1h-5v.8h4.2v1h-10.7v-1h4.1v-.8h-4.9v-1h4.9v-.2h-.1ZM162,35.3c0,.2,0,.4-.1.7,0,.2-.2.4-.4.7h3.6v1.1h-13.5v-1.1h4.2c-.1-.2-.3-.3-.5-.4-.2,0-.4-.2-.6-.4-.3-.3-.3-.4,0-.5h1.3c.5.4.7.8.7,1.3h3.1s.1,0,.2-.2c0,0,0-.3.1-.5,0-.3.3-.4.7-.5h1.2v-.2ZM153.5,31.6h9.4l-.3,3.5h-9l-.2-3.5h.1ZM155.7,34.1h5.1v-1.4h-5.1v1.4ZM152.9,38.2h10.9l-.2,3.6h-1.6v-.3h-7.2v.3h-1.5l-.3-3.6h0ZM154.6,40.5h7.2v-1.2h-7.2v1.2Z"/>
  <path class="st0" d="M180.3,28.1c.4-.1.8-.1,1.2,0,.5.1.9.4,1.2.8l-.9,1c-.3-.7-.8-1.2-1.5-1.5,0,0-.1,0-.1-.2s0-.1.1-.2h0ZM179.2,28.5c.4,0,.8,0,1.2.3.5.2.8.6,1,1.1l-1.1.7c-.1-.4-.3-.7-.5-1s-.5-.6-.7-.7c-.1,0-.2-.2,0-.3,0,0,.1,0,.2-.1h0ZM180.7,33c-.1-.2-.2-.4-.3-.6-.1,0-.3-.2-.4-.2h-.3c1.3,1.7,1.6,3.7,1,6-.6,1.5-1.4,2.5-2.5,2.9-1,.4-2.1.6-3.1.6-1.5,0-2.6-.4-3.5-1-.8-.7-1.5-1.8-1.9-3.5-.3-2.5.2-4.7,1.5-6.7h-1.4v-1.3c-.1,0,4.5,0,4.5,0v1.3c-1.2,1.1-2,2.5-2.3,4.1-.3,1.7-.2,3,.2,4,.5,1.1,1.5,1.6,3,1.7,1.2,0,2.1-.2,2.7-.7.6-.5,1-1.2,1.1-2,0-1.5,0-2.6-.4-3.4-.4-.8-.9-1.5-1.6-2h-.5l-.2-1.2h3.7c.6,0,1,.2,1.4.6s.6.9.8,1.4c0,0-1.5,0-1.5,0Z"/>
  <path class="st0" d="M187,39.4c-.3-.2-.4-.4-.3-.5,0,0,.2-.2.3-.3.5,0,1.1.2,1.7.5.6.3,1.1.8,1.4,1.5l-1.5,1.2c-.1-.5-.4-.9-.7-1.3-.3-.4-.6-.8-.9-1.1Z"/>
  <path class="st0" d="M154.6,49.2h1.2c.5,0,.9.4,1.2.9l-.9,1c-.3-.7-.8-1.2-1.5-1.5,0,0-.1,0-.1-.2s0,0,.1-.2ZM153.6,49.7c.4,0,.8,0,1.2.3.5.2.8.6,1.1,1.1l-1.1.8c-.1-.4-.3-.7-.5-1s-.5-.6-.7-.7c-.1,0-.2-.2,0-.3,0,0,.1,0,.2,0h-.2ZM152.1,49.8v1.5h2.1c0,0,.2.3.4.6l.9-.6h.8l-.2,1.3h-4c0,2.6-.2,4.9-.4,6.6-.2,1-.5,1.8-1.1,2.4-.6.6-1.4,1-2.6,1.1v-1.2c.5,0,1.1-.2,1.5-.6.4-.4.6-1.1.6-2.1h-1.4c-.9,0-1.6-.2-2.1-.7-.6-.4-.8-1.1-.9-1.9,0-1.5,1-2.3,2.8-2.5h1.5v-1.2h-6.2v-1.3c-.1,0,6.1,0,6.1,0v-.7c0-.2,0-.4.2-.5.1,0,.4-.2.8-.3h1.4-.2ZM148.4,57.6h1.6v-2.5h-1.4c-.6,0-.9,0-1.2.4-.2.3-.3.5-.4.9,0,.4,0,.7.3.9.2.2.6.4,1,.4h0Z"/>
  <path class="st0" d="M166.9,54.4c1.1,0,2,.4,2.6,1.1.7.6,1,1.6.9,3,0,1.1-.5,2-1.2,2.8-.7.7-1.5,1.1-2.3,1.1h-4.9v-1h4.2c.6,0,1.1-.3,1.6-.9.5-.6.7-1.3.8-2.1,0-1-.2-1.8-.6-2.3-.4-.5-1-.7-1.6-.8h-5.8v-1c-.1,0,6.2,0,6.2,0h.1Z"/>
  <path class="st0" d="M181.1,50.3v3.5c-.1,0,6.7,0,6.7,0l-.2,1.2h-6.2c-1.2,0-2.2.3-3,.8-.7.5-1.1,1.3-1.1,2.5s.4,1.9,1.2,2.4c.7.5,1.6.8,2.8.8h6.3v1.2h-7c-1.3,0-2.5-.4-3.6-1s-1.7-1.8-1.9-3.5c0-1.2.3-2.2.9-3,.6-.8,1.5-1.3,2.8-1.6v-2.7c0-.3,0-.5.2-.6.2,0,.4-.2.9-.3h1.3v.3Z"/>
  <path class="st0" d="M192.3,56.5l-.2-1.5h13.5v1.5h-13.4,0Z"/>
  <path class="st0" d="M223.7,50c0,1.1-.4,2.1-.9,2.9-.5.8-.9,1.3-1.2,1.6h2v1h-3c-.2.2-.4.3-.6.5h3l-.5,7.1h-1.5v-.3h-2.4v.3h-1.5l-.4-4.9c-.1,0-.2,0-.3.2l-.2-1.1c.2,0,.3-.2.4-.3v-1h1.4c.2-.2.4-.3.6-.5h-2.3v-1c-.1,0,1.2,0,1.2,0v-2.1h-1.1v-1h1v-1.5c0-.5.3-.7.8-.8.5,0,1.1,0,1.6,0v2.4h.9v1h-1v1.9c.6-1,1.2-2.1,1.8-3.4.4-.7,1.1-1.1,2.1-1h0ZM218.7,61.8h2.4v-1.8h-2.4v1.8ZM221,59v-1.9h-2.4v1.9h2.4ZM212.1,49.8c.2-.4.6-.7,1.2-.7s1.1,0,1.7,0l-2.5,3.7.5.4.4-.6c.2-.3.6-.5,1.2-.6s1.1,0,1.6,0l-2.4,3.4h.7c0,0,0-.2-.1-.2,0-.2,0-.3.4-.4.3,0,.7,0,1.1,0,0,0,0,.2.2.6.1.4.2.8.2,1.1v1.1c-.1,0-.2-.2-.3-.4s-.3-.4-.4-.7c-.2,0-.3,0-.5,0-.2,0-.4,0-.7,0l-.2,6.7h-1.4l-.2-6.4c-.5,0-.9.2-1.3.2s-.6,0-.8,0l-.2-1.7h1.3c0,0,1-1.5,1-1.5-.3-.2-.6-.4-.9-.7-.3-.2-.7-.4-1-.7-.2-.2-.2-.3-.2-.4s.2-.2.4-.2l1.5-2.2h-.3ZM216.1,57.6c0,1.4.2,2.7.3,4v1.1c-.5,0-.9-.5-1.2-1.3s-.6-1.8-.7-2.9c0-.3.2-.5.5-.7.3,0,.7-.2,1.1-.2h0ZM210.4,58.4c0-.3.2-.5.5-.7.4,0,.8-.2,1.3-.2,0,1.3-.3,2.4-.7,3.4s-.8,1.5-1.4,1.6v-1.1s.1-.3.2-.8v-2.3h0Z"/>
  <path class="st0" d="M231,62.9c-.9-.2-1.6-.7-1.9-1.6-.3-.8-.5-1.7-.6-2.5-.3-2.5-.4-4.9-.4-7.3s.1-.4.3-.5c.2,0,.5-.2.8-.2h1.4c-.1,1.6-.2,3.2-.3,4.9,0,1.7,0,3.3.1,4.8,0,.3,0,.6.2.8.1.2.3.4.4.4v1.3h0ZM234,53.5l-.2-1.4h6.8v1.4h-6.7,0ZM234.8,60.1c0,.4.1.7.4.8.2.2.6.2,1.1.2h4.5l-.2,1.3h-5.2c-.7,0-1.2-.3-1.6-.8-.4-.5-.6-1.1-.7-1.8-.1-.4,0-.7.4-.9.4,0,.8-.2,1.3,0v1.2h0Z"/>
  <path class="st0" d="M245.3,60.8c0-.7.2-1.2.7-1.7s1-.7,1.7-.7,1.2.2,1.7.7.7,1,.7,1.7-.2,1.2-.7,1.6c-.5.5-1,.7-1.7.7s-1.2-.2-1.7-.7c-.5-.4-.7-1-.7-1.6ZM246.8,60.3c0,.3.1.5.3.8s.5.3.8.3.5,0,.8-.3.3-.5.3-.8-.1-.5-.3-.8-.5-.3-.8-.3-.5,0-.8.3-.3.5-.3.8Z"/>
  <path class="st0" d="M46.9,148.6c1.1-.3,1.9-.9,2.4-1.7.5-.9.9-2,1.2-3.3.2-1.4.4-2.8.3-4.2,0-.7.5-1.2,1.2-1.3.8-.1,1.6-.2,2.3,0,0,3.9-.8,6.9-2.1,8.9s-3,3.2-5.1,3.6l-.2-1.8v-.2ZM57.9,134.4h-13.1l-.2-1.8h17.2c0,1.4-.4,2.6-.9,3.8s-1.1,2.2-2.1,3.1c-.9.8-2,1.3-3.3,1.4l-.2-1.8c.7,0,1.3-.6,1.8-1.6.5-.9.8-2,.8-3.1h0Z"/>
  <path class="st0" d="M76.3,135.3c0,4.1-.4,7.5-1.6,10.2s-2.7,4.3-4.5,4.9l-.2-1.8c.8-.2,1.3-.8,1.8-1.9.4-1.1.7-2.5.8-4.4,0-1.8.2-3.7,0-5.7,0-.4,0-.7.4-.9.3-.2.7-.4,1.2-.4s1.2-.1,2,0h0ZM84.3,146.1c0-.7.5-1.1,1.1-1.3s1.2-.2,1.8-.1c-.4,1.5-1,2.9-1.8,4.2-.4.8-1,1.3-1.8,1.5-1.5-1.1-2.8-3.3-3.7-6.4-.9-3.2-1.4-6.8-1.4-11s.2-.7.5-.9.8-.4,1.3-.4,1.3-.1,2.1,0c-.3,3.7-.3,7,0,9.9.2,2.9.7,5.3,1.3,7.2.4-.8.6-1.7.7-2.6h0Z"/>
  <path class="st0" d="M97.8,148.5c2.4-.1,4.8-1.5,7.1-4.2,2.3-2.7,3.6-5.8,3.7-9.3h-5.9c-.3,1.3-1.2,2.7-2.7,4s-2.9,2.1-4.3,2.3l-.3-1.9c.9-.2,1.7-1,2.5-2.3s1.1-2.6,1.1-4h13.5c-.3,4.7-1.8,8.7-4.7,12.2-2.9,3.4-6.2,5.2-9.8,5.3l-.2-1.9v-.2Z"/>
  <path class="st0" d="M140,134.1h-.9c0,2-.8,3.7-2.2,5.2,1.4,1.4,2.5,2.1,3.3,2.1l-.2,1.6c-.5,0-.9-.2-1.4-.3v1.3h-6.9v1.4h6l-.2,1.5h-5.9v2.6h8.5l-.2,1.5h-19.2l-.2-1.5h3.2v-2.6c0-.7.2-1.2.7-1.3s1.1-.1,1.7,0l-.2,4h3.2l-.2-5.4h-6.8l-.2-1.4c-.4.3-.9.5-1.3.5l-.2-1.5c.4,0,.8-.5,1.4-1.2s.9-1.3,1-1.8h-2l-.2-4.7h3.6v-.7h-3.7v-1.5c0,0,3.7,0,3.7,0,0-.6.2-1,.7-1.2s1-.2,1.5-.2v1.4h3.9l-.2,1.5h-3.7v.7h3.7l-.2,4.7h-1.9c.2.3.5.6,1,.9.5.3,1,.5,1.5.5l-.2,1.5c-.7,0-1.4-.3-2.2-.7s-1.3-.8-1.8-1.2v2.5h-1.9v-2.3c-.3.7-.7,1.2-1.2,1.7s-.8.8-1.1,1h15.8c-1.1-.4-2.1-.9-3.1-1.6-1.4,1-2.6,1.5-3.7,1.5l-.2-1.5c.6,0,1.4-.4,2.3-1.2-1.1-1-1.6-2.1-1.6-3.2.2-.6.6-1,1.1-1.2s1.1-.3,1.7-.3c0,.8.2,1.7.8,2.5.7-1.1,1.1-2.3,1.1-3.5h-2.7c-.7,1-1.7,1.6-2.8,2l-.2-1.5c.2,0,.4-.5.6-1.2.3-.7.4-1.3.4-1.6,0-.7.5-1.1,1.3-1.2.8-.1,1.6-.2,2.3-.1-.1.7-.4,1.4-.7,2.2h5.4l-.2,1.5.3-.2ZM128.2,135.5h-1.6v1.7h1.6v-1.7ZM124.5,135.5h-1.6v1.7h1.6v-1.7Z"/>
  <path class="st0" d="M150.3,143.2c-.6.7-1.3,1.2-2.2,1.4l-.2-1.4c1.8-3.5,2.9-7.3,3.1-11.4,0-.9,1.3-1.4,3.7-1.4-.2,2.4-.5,4.2-.9,5.6-.3,1.4-.6,2.4-.7,3l-.4,11.8h-2.1l-.3-7.7h0ZM163.3,136.2c.2,2.5.8,5,1.8,7.4,1,2.5,1.8,3.8,2.4,4.1l-.3,1.4c-.6,0-1.5-.8-2.7-2.2s-2.1-2.9-2.7-4.6l-.2,5.1h2.2l-.2,1.5h-2.1v1.8h-2.3v-1.8h-2l-.2-1.5h2l-.2-5.1c-.4,1.7-1.3,3.2-2.6,4.5s-2.3,2.1-2.9,2.2l-.2-1.3c.8-.3,1.6-1.6,2.5-4s1.5-4.9,1.8-7.5h-3.2v-1.5c-.1,0,4.2,0,4.2,0v-2.9c0-.7.4-1.1,1.2-1.3.8-.1,1.6-.2,2.4-.1l-.2,4.3h4.5l-.2,1.5h-3.1.3Z"/>
  <path class="st0" d="M190.6,131c.6-.1,1.2-.1,1.8,0,.7.2,1.2.6,1.7,1.2l-1.4,1.4c-.5-1.1-1.2-1.8-2.2-2.1-.1,0-.2-.2-.2-.2,0,0,0-.2.2-.3h0ZM189,131.6c.6,0,1.1.1,1.7.4.7.4,1.2.9,1.5,1.6l-1.6,1.1c-.2-.5-.4-1-.8-1.4-.3-.4-.7-.8-1-1.1s-.2-.3-.1-.5c0,0,.2-.1.3-.2h0ZM190.6,134.9l1.2-.8c0,3.9-.9,7.2-2.7,9.8-1.7,2.6-3.7,4.4-5.9,5.2-2.2.9-4.4,1.3-6.7,1.3l-.4-2.9c3.6.1,6.6-1,9-3.5,2.4-2.4,3.7-5.4,3.8-8.8,0-.7.4-1.1,1.1-1.3h.1c.2.2.3.5.4.9h0ZM175.6,135.3l-.2-1.8h6.5l-.2,1.8h-6.1ZM181.9,137.1l-.2,1.8h-5.6l-.2-1.8h6Z"/>
  <path class="st0" d="M200.6,148.8c1.1-.6,2.1-1.6,2.9-3,.8-1.3,1.4-3.1,1.9-5.4.5-2.2.7-4.8.7-7.5s.2-.7.5-.8c.3-.2.7-.3,1.3-.4.5-.1,1.2-.1,2.1,0,0,3.4-.5,6.5-1.4,9.2s-2,4.9-3.3,6.7c2.4-.9,5.1-1.8,8.1-2.5-.5-.4-.9-.6-1.4-.8-.3-.1-.3-.4.1-.9.4-.5.8-.9,1.4-1.3,1.3.2,2.2,1,2.7,2.4s.7,2.7.7,4l-.3,1.8c0-.5-.1-.9-.3-1.3-.1-.4-.3-.8-.6-1.2-5.3.8-10.2,1.6-14.8,2.5l-.2-1.5h0Z"/>
  <path class="st0" d="M120.9,91.8l-1.8.4,2.9,11.7,2.3-.5.2.7-11.4,2.8-.2-.7,2.3-.6-5.7-23.2-2.3.6-.2-.7,10.6-2.6c3-.7,5.2-1.1,6.6-1.1s2.3,0,3,.5c1.3.6,2.3,2,2.7,3.9.5,2,.4,3.5-.4,4.6-.8,1.1-2.1,2-4.1,2.6h0c1.9,0,3.4,0,4.4.8,1,.7,1.7,2,2.2,4l.5,1.9c.3,1.2.6,2,.8,2.4s.6.5,1,.4c.4,0,.7-.4.9-.8s.2-1.3,0-2.6h.6c.2,2,.1,3.4-.4,4.3-.5.8-1.7,1.5-3.6,1.9-1.9.5-3.4.4-4.4-.3-1-.7-1.8-2.3-2.5-4.8l-.6-2.5c-.3-1.3-.7-2.2-1.2-2.7s-1.2-.7-2.1-.5h-.1ZM116.2,80.8l2.7,10.8,1.1-.3c1.3-.3,2.2-1,2.6-2s.4-2.4,0-4.2l-.3-1c-.5-1.8-1.1-3-1.8-3.4-.8-.4-1.8-.5-3.2-.2,0,0-1.1.3-1.1.3Z"/>
  <path class="st0" d="M152.8,96.2c-.3,2.2-.1,3.9.5,5.2.6,1.3,1.9,2,3.8,2.3,2,.3,3.5,0,4.7-1.2s2-2.9,2.3-5.3l2.1-16.2-2.3-.3v-.7l5.3.7v.7l-2.1-.2-2,15.9c-.4,3-1.3,5.1-2.8,6.4s-3.9,1.7-7.2,1.3c-3.3-.4-5.8-1.4-7.4-3-1.6-1.6-2.1-4.1-1.7-7.5l2-15.5-1.9-.3v-.7l11.3,1.5v.7l-2.4-.3-2.1,16.7v-.2Z"/>
  <path class="st0" d="M178.4,82.4l10.7-2.6.2.7-1.9.5,2.7,11.1h.2c0,0,7.2-13.6,7.2-13.6l-2.8.7-.2-.7,6.1-1.5.2.7-2.1.5-4.4,8.2,12.5,14.4,1.9-.5.2.7-11.2,2.8-.2-.7,1.6-.4-8.6-9.8-.3.2,2.8,11.1,1.9-.5.2.7-10.7,2.6-.2-.7,1.9-.5-5.7-23.2-1.9.5-.2-.7h.1Z"/>
  <path class="st0" d="M224.5,96.1c-.6,2.1-.7,3.9-.4,5.2.4,1.3,1.6,2.3,3.4,2.8,1.9.6,3.5.4,4.9-.5s2.4-2.5,3.1-4.9l4.6-15.7-2.3-.7.2-.6,5.1,1.5-.2.6-1.9-.5-4.5,15.4c-.8,2.9-2.1,4.8-3.8,5.8s-4.1,1.1-7.4,0c-3.2-1-5.5-2.3-6.8-4.2-1.3-1.8-1.5-4.4-.5-7.6l4.4-15-1.9-.5.2-.6,10.9,3.2-.2.6-2.3-.7-4.7,16.2h0Z"/>
  <path class="st0" d="M108,31.1h-2.6v.8h2.6l-.3,4.8h-2.5v.9h2.8v1h-2.9v1l3.2-.2-.2,1.1c0,0-.7,0-1.8.3-1.1.2-2.2.4-3.3.6-1.1.2-1.9.3-2.3.4l-.3-2h3.1v-1.2h-2.5v-1h2.5v-.9h-2.6l-.3-4.8h2.7v-.8h-2.4v-1.1h2.4v-.5c-.4,0-.8,0-1.2.1h-1.4v-1c.4,0,1.2,0,2.1-.2s1.8-.3,2.4-.5c.5-.2,1-.3,1.5-.4.5,0,1-.1,1.4-.1,0,.4-.3.8-.8,1.1-.5.3-1.1.5-1.8.7v.9h2.6v1.1h0ZM103.5,32.9h-.8v.8h.9v-.8h0ZM102.7,35.6h.9v-.9h-.9v.9ZM105.3,35.6h.9v-.9h-.9v.9ZM106.2,32.9h-.8v.8h.8v-.8ZM111.3,31.5h2.8l-.5,10.3h-1.3v-9.3h-1.1c-.2,2.4-.5,4.5-1,6.4s-1.1,2.8-2,2.9l-.2-1c.4,0,.6-.9.9-2.6.3-1.7.4-3.6.5-5.7h-1.2v-1c0,0,1.3,0,1.3,0v-2.9c0-.5.3-.8.7-.9.4-.1.8-.2,1.2-.1v1.9c0,.7,0,1.3-.1,2Z"/>
  <path class="st0" d="M129.1,28.5v2.9h2v1.3h-2c-.2,2.6-.4,4.7-.8,6.2-.4,1.5-1.2,2.4-2.4,2.6v-1.2s.2-.2.4-.4c.2-.2.3-.5.4-.9,0-1,.2-2,.2-3v-3.3h-3.8l-.2-1.3h3.9v-1.9c0-.2,0-.5.3-.6.2-.1.4-.2.8-.3.4,0,.8-.1,1.4,0h-.2ZM121.5,40.6c-.9,0-1.5-.5-1.8-1.2s-.5-1.5-.7-2.4c-.3-2.2-.4-4.5-.4-6.8s0-.4.3-.6c.2-.1.4-.2.8-.3.4,0,.8-.1,1.3,0,0,1.6,0,3.1-.2,4.7,0,1.5,0,3,0,4.3,0,.2,0,.5.2.7s.3.3.5.3l-.2,1.3h0Z"/>
  <path class="st0" d="M135.7,33.3h1l3.1-3.2h-2.9l-.2-1.2h6.9l-4.8,4.4h3.6c1.9,0,3.2.5,3.8,1.2.6.8.9,1.7.9,2.8,0,1.7-.5,2.8-1.4,3.3-.8.6-2,.9-3.5.9h-4c-.9,0-1.6-.2-2-.6-.4-.3-.7-.9-.7-1.6,0-1.4.9-2,2.6-2.1,1.4,0,2.3.4,2.5,1.1.3.7.2,1.3-.2,1.8h1.5c.7,0,1.3-.3,1.9-.7.6-.4.9-1.2.9-2.2s-.2-1.4-.7-1.9c-.4-.5-1.3-.8-2.7-.9h-5.6v-1.2h0ZM138.2,38.6c-.8,0-1.2.3-1.3.9,0,.5.5.8,1.2.9.7,0,1.1-.4,1.1-.9s-.4-.8-1.1-.8h.1Z"/>
  <path class="st0" d="M157,28.2c0-.3.4-.4.9-.5h1.6v.8h5v1h-5v.8h4.2v1h-10.7v-1h4.1v-.8h-4.9v-1h4.9v-.2h-.1ZM162,35.3c0,.2,0,.4-.1.7,0,.2-.2.4-.4.7h3.6v1.1h-13.5v-1.1h4.2c-.1-.2-.3-.3-.5-.4-.2,0-.4-.2-.6-.4-.3-.3-.3-.4,0-.5h1.3c.5.4.7.8.7,1.3h3.1s.1,0,.2-.2c0,0,0-.3.1-.5,0-.3.3-.4.7-.5h1.2v-.2ZM153.5,31.6h9.4l-.3,3.5h-9l-.2-3.5h.1ZM155.7,34.1h5.1v-1.4h-5.1v1.4ZM152.9,38.2h10.9l-.2,3.6h-1.6v-.3h-7.2v.3h-1.5l-.3-3.6h0ZM154.6,40.5h7.2v-1.2h-7.2v1.2Z"/>
  <path class="st0" d="M180.3,28.1c.4-.1.8-.1,1.2,0,.5.1.9.4,1.2.8l-.9,1c-.3-.7-.8-1.2-1.5-1.5,0,0-.1,0-.1-.2s0-.1.1-.2h0ZM179.2,28.5c.4,0,.8,0,1.2.3.5.2.8.6,1,1.1l-1.1.7c-.1-.4-.3-.7-.5-1s-.5-.6-.7-.7c-.1,0-.2-.2,0-.3,0,0,.1,0,.2-.1h0ZM180.7,33c-.1-.2-.2-.4-.3-.6-.1,0-.3-.2-.4-.2h-.3c1.3,1.7,1.6,3.7,1,6-.6,1.5-1.4,2.5-2.5,2.9-1,.4-2.1.6-3.1.6-1.5,0-2.6-.4-3.5-1-.8-.7-1.5-1.8-1.9-3.5-.3-2.5.2-4.7,1.5-6.7h-1.4v-1.3c-.1,0,4.5,0,4.5,0v1.3c-1.2,1.1-2,2.5-2.3,4.1-.3,1.7-.2,3,.2,4,.5,1.1,1.5,1.6,3,1.7,1.2,0,2.1-.2,2.7-.7.6-.5,1-1.2,1.1-2,0-1.5,0-2.6-.4-3.4-.4-.8-.9-1.5-1.6-2h-.5l-.2-1.2h3.7c.6,0,1,.2,1.4.6s.6.9.8,1.4c0,0-1.5,0-1.5,0Z"/>
  <path class="st0" d="M187,39.4c-.3-.2-.4-.4-.3-.5,0,0,.2-.2.3-.3.5,0,1.1.2,1.7.5.6.3,1.1.8,1.4,1.5l-1.5,1.2c-.1-.5-.4-.9-.7-1.3-.3-.4-.6-.8-.9-1.1Z"/>
  <path class="st0" d="M154.6,49.2h1.2c.5,0,.9.4,1.2.9l-.9,1c-.3-.7-.8-1.2-1.5-1.5,0,0-.1,0-.1-.2s0,0,.1-.2ZM153.6,49.7c.4,0,.8,0,1.2.3.5.2.8.6,1.1,1.1l-1.1.8c-.1-.4-.3-.7-.5-1s-.5-.6-.7-.7c-.1,0-.2-.2,0-.3,0,0,.1,0,.2,0h-.2ZM152.1,49.8v1.5h2.1c0,0,.2.3.4.6l.9-.6h.8l-.2,1.3h-4c0,2.6-.2,4.9-.4,6.6-.2,1-.5,1.8-1.1,2.4-.6.6-1.4,1-2.6,1.1v-1.2c.5,0,1.1-.2,1.5-.6.4-.4.6-1.1.6-2.1h-1.4c-.9,0-1.6-.2-2.1-.7-.6-.4-.8-1.1-.9-1.9,0-1.5,1-2.3,2.8-2.5h1.5v-1.2h-6.2v-1.3c-.1,0,6.1,0,6.1,0v-.7c0-.2,0-.4.2-.5.1,0,.4-.2.8-.3h1.4-.2ZM148.4,57.6h1.6v-2.5h-1.4c-.6,0-.9,0-1.2.4-.2.3-.3.5-.4.9,0,.4,0,.7.3.9.2.2.6.4,1,.4h0Z"/>
  <path class="st0" d="M166.9,54.4c1.1,0,2,.4,2.6,1.1.7.6,1,1.6.9,3,0,1.1-.5,2-1.2,2.8-.7.7-1.5,1.1-2.3,1.1h-4.9v-1h4.2c.6,0,1.1-.3,1.6-.9.5-.6.7-1.3.8-2.1,0-1-.2-1.8-.6-2.3-.4-.5-1-.7-1.6-.8h-5.8v-1c-.1,0,6.2,0,6.2,0h.1Z"/>
  <path class="st0" d="M181.1,50.3v3.5c-.1,0,6.7,0,6.7,0l-.2,1.2h-6.2c-1.2,0-2.2.3-3,.8-.7.5-1.1,1.3-1.1,2.5s.4,1.9,1.2,2.4c.7.5,1.6.8,2.8.8h6.3v1.2h-7c-1.3,0-2.5-.4-3.6-1s-1.7-1.8-1.9-3.5c0-1.2.3-2.2.9-3,.6-.8,1.5-1.3,2.8-1.6v-2.7c0-.3,0-.5.2-.6.2,0,.4-.2.9-.3h1.3v.3Z"/>
  <path class="st0" d="M192.3,56.5l-.2-1.5h13.5v1.5h-13.4,0Z"/>
  <path class="st0" d="M223.7,50c0,1.1-.4,2.1-.9,2.9-.5.8-.9,1.3-1.2,1.6h2v1h-3c-.2.2-.4.3-.6.5h3l-.5,7.1h-1.5v-.3h-2.4v.3h-1.5l-.4-4.9c-.1,0-.2,0-.3.2l-.2-1.1c.2,0,.3-.2.4-.3v-1h1.4c.2-.2.4-.3.6-.5h-2.3v-1c-.1,0,1.2,0,1.2,0v-2.1h-1.1v-1h1v-1.5c0-.5.3-.7.8-.8.5,0,1.1,0,1.6,0v2.4h.9v1h-1v1.9c.6-1,1.2-2.1,1.8-3.4.4-.7,1.1-1.1,2.1-1h0ZM218.7,61.8h2.4v-1.8h-2.4v1.8ZM221,59v-1.9h-2.4v1.9h2.4ZM212.1,49.8c.2-.4.6-.7,1.2-.7s1.1,0,1.7,0l-2.5,3.7.5.4.4-.6c.2-.3.6-.5,1.2-.6s1.1,0,1.6,0l-2.4,3.4h.7c0,0,0-.2-.1-.2,0-.2,0-.3.4-.4.3,0,.7,0,1.1,0,0,0,0,.2.2.6.1.4.2.8.2,1.1v1.1c-.1,0-.2-.2-.3-.4s-.3-.4-.4-.7c-.2,0-.3,0-.5,0-.2,0-.4,0-.7,0l-.2,6.7h-1.4l-.2-6.4c-.5,0-.9.2-1.3.2s-.6,0-.8,0l-.2-1.7h1.3c0,0,1-1.5,1-1.5-.3-.2-.6-.4-.9-.7-.3-.2-.7-.4-1-.7-.2-.2-.2-.3-.2-.4s.2-.2.4-.2l1.5-2.2h-.3ZM216.1,57.6c0,1.4.2,2.7.3,4v1.1c-.5,0-.9-.5-1.2-1.3s-.6-1.8-.7-2.9c0-.3.2-.5.5-.7.3,0,.7-.2,1.1-.2h0ZM210.4,58.4c0-.3.2-.5.5-.7.4,0,.8-.2,1.3-.2,0,1.3-.3,2.4-.7,3.4s-.8,1.5-1.4,1.6v-1.1s.1-.3.2-.8v-2.3h0Z"/>
  <path class="st0" d="M231,62.9c-.9-.2-1.6-.7-1.9-1.6-.3-.8-.5-1.7-.6-2.5-.3-2.5-.4-4.9-.4-7.3s.1-.4.3-.5c.2,0,.5-.2.8-.2h1.4c-.1,1.6-.2,3.2-.3,4.9,0,1.7,0,3.3.1,4.8,0,.3,0,.6.2.8.1.2.3.4.4.4v1.3h0ZM234,53.5l-.2-1.4h6.8v1.4h-6.7,0ZM234.8,60.1c0,.4.1.7.4.8.2.2.6.2,1.1.2h4.5l-.2,1.3h-5.2c-.7,0-1.2-.3-1.6-.8-.4-.5-.6-1.1-.7-1.8-.1-.4,0-.7.4-.9.4,0,.8-.2,1.3,0v1.2h0Z"/>
  <path class="st0" d="M245.3,60.8c0-.7.2-1.2.7-1.7s1-.7,1.7-.7,1.2.2,1.7.7.7,1,.7,1.7-.2,1.2-.7,1.6c-.5.5-1,.7-1.7.7s-1.2-.2-1.7-.7c-.5-.4-.7-1-.7-1.6ZM246.8,60.3c0,.3.1.5.3.8s.5.3.8.3.5,0,.8-.3.3-.5.3-.8-.1-.5-.3-.8-.5-.3-.8-.3-.5,0-.8.3-.3.5-.3.8Z"/>
  <path class="st0" d="M82,57.9c-7.7,5.7-3.1,17.5,5.9,17.9,15.1.9,17.9-16.3,5.6-23.4-4-2.5-8.5-4.1-13.1-5.4-1.2-.4-2.2-.6-1.5-2.3v.2c1.5-3.8,2.9-7.4,4.3-11,1.2-4.4,8.6-14.3,1.9-16.7-6.6-2.8-11-9.1-13.9-15.5-.2-.6-.2-1.7-1.3-1.4-.8.3-.8,1.2-.8,1.9.2,2.7-1.5,4.7-2.4,7.3-.6-.9-1-1.9-2-1.3s-.6,1.6-.2,2.5c1,1.4.9,1.9,0,3.2-.9,1.4-3.2-2-4.8.7-.9,1.6.2,2.5,1.5,3.2.9.5.9,1.1.6,2-1.3,3.4,3.6,4,5.6,2.4.3,0,.2-1.9,1.2-.8.6.7,1,1.5.8,2.4-.1,1-.9,0-1.4,0-5.6,3.1-6.8-2.2-8.4,1.3-1.9,4.2-4,8.3-6.5,12.2-.5.8-1,1.7-2.2,1.3-5.6-1.7-14.7-5.1-12.5-12.6.4-1.1,1-1.6,2.3-1.1,7.4,2.6,15.7-5.7,13.3-13.1-12.9-26.4-48.5,13.6-8.9,31.9,3.1,1.4,3.2,1.6,1.3,4.5-.6,2.3-28.6,39.3-27.2,29.3.2-16.9-22.4-15.1-18.8,0,1.8,6.1,7.7,9.5,10.4,15.1,2.5,4.6,10,1.1,12-2.5,54.6-62.5,23.3-4.5,56.2,13.8-4,3.5-9.3.2-11.5,7.2-3.2,14.5,19.6,14.3,20.9,1.1.5-2.2.6-4.6,1.7-6.6,2.1-3.7-1.5-8.3-5.5-7.9-1.5.2-2.8-.4-4-1.4-11.4-10.4-8.6-28-5.6-41.4.3-1.2,1.2-1.4,2.2-1,1.5.6,3,1.3,4.6,1.9,1.4.6,1.4,1.1.2,2.1ZM73.3,17.4c-.5,1.3-1.7,2.1-2.6,1.7-.9-.4-1.2-1.8-.7-3.1.5-1.3,1.7-2.1,2.6-1.7.9.4,1.2,1.8.7,3.1Z"/>
</svg>