<svg xmlns="http://www.w3.org/2000/svg">
  <symbol id="menu-icon" viewBox="0 -960 960 960" fill="currentColor">
    <path d="M120-240v-80h720v80H120Zm0-200v-80h720v80H120Zm0-200v-80h720v80H120Z"/>
  </symbol>
  <symbol id="mail-icon" viewBox="0 -960 960 960" fill="currentColor">
    <path d="M160-160q-33 0-56.5-23.5T80-240v-480q0-33 23.5-56.5T160-800h640q33 0 56.5 23.5T880-720v480q0 33-23.5 56.5T800-160H160Zm320-280L160-640v400h640v-400L480-440Zm0-80 320-200H160l320 200ZM160-640v-80 480-400Z"/>
  </symbol>
  <symbol id="right-arrow-icon" viewBox="0 -960 960 960" fill="currentColor">
    <path d="M647-440H160v-80h487L423-744l57-56 320 320-320 320-57-56 224-224Z"/>
  </symbol>
</svg>
  